<svg width="20" height="20" viewBox="0 0 20 20" fill="none" xmlns="http://www.w3.org/2000/svg">
<g clip-path="url(#clip0_1639_1010)">
<path d="M11.2454 15.4254H13.7135L11.0446 18.2707V15.6262C11.0446 15.5154 11.1347 15.4254 11.2454 15.4254ZM8.26696 4.37784L9.02784 4.27941L8.55284 3.59774L8.26696 4.37784ZM15.1996 0.490196V14.445H11.2454C10.594 14.445 10.0642 14.9749 10.0642 15.6262V20H0.490196C0.219412 20 0 19.7805 0 19.5098V0.490196C0 0.21951 0.219412 0 0.490196 0H14.7093C14.9801 0 15.1996 0.21951 15.1996 0.490196ZM6.98666 6.44706C7.04235 6.46745 7.09921 6.47716 7.15539 6.47716C7.35519 6.47716 7.54294 6.35402 7.61558 6.15549L7.88666 5.41569L9.6596 5.18627L10.1101 5.83275C10.2055 5.96951 10.3577 6.04275 10.5126 6.04275C10.6094 6.04275 10.7072 6.01412 10.7924 5.95471C11.0146 5.7999 11.0691 5.49441 10.9144 5.27235L8.81862 2.2648C8.81784 2.26373 8.81676 2.26284 8.81598 2.26176C8.80245 2.24255 8.78627 2.22529 8.7699 2.20814C8.76392 2.20186 8.75882 2.19431 8.75254 2.18843C8.7396 2.17627 8.7245 2.16627 8.71019 2.15549C8.69872 2.14686 8.68813 2.13696 8.67607 2.12941C8.66686 2.12363 8.65627 2.1198 8.64656 2.11461C8.62764 2.10451 8.60892 2.09412 8.58892 2.08667C8.58754 2.08618 8.58647 2.08529 8.58509 2.0848C8.57362 2.08059 8.56186 2.07922 8.55039 2.07588C8.53245 2.07078 8.5147 2.0651 8.49627 2.06206C8.47999 2.05931 8.46392 2.05912 8.44764 2.05814C8.43225 2.05716 8.41696 2.05539 8.40147 2.05578C8.3849 2.05627 8.36882 2.05912 8.35245 2.06127C8.33725 2.06324 8.32205 2.06451 8.30696 2.06794C8.29068 2.07167 8.27519 2.07765 8.25931 2.08304C8.24509 2.08784 8.23068 2.09176 8.21676 2.09804C8.19794 2.10647 8.18058 2.11735 8.16294 2.12804C8.15411 2.13343 8.1448 2.13696 8.13617 2.14294C8.13519 2.14363 8.13441 2.14461 8.13343 2.14529C8.11372 2.15922 8.09598 2.17569 8.07843 2.19245C8.07245 2.19814 8.06549 2.20294 8.0598 2.20882C8.04794 2.22137 8.03833 2.23608 8.02784 2.2499C8.01882 2.26176 8.00852 2.27284 8.00078 2.28539C7.99568 2.29353 7.99235 2.30304 7.98764 2.31157C7.97676 2.33167 7.96588 2.35167 7.95794 2.37294C7.95745 2.37422 7.95666 2.3752 7.95627 2.37647L6.69509 5.81814C6.60196 6.07235 6.73245 6.35392 6.98666 6.44706ZM8.27617 14.9352C8.27617 14.6645 8.05676 14.445 7.78598 14.445H2.82039C2.54961 14.445 2.33019 14.6645 2.33019 14.9352C2.33019 15.2059 2.54961 15.4254 2.82039 15.4254H7.78607C8.05676 15.4254 8.27617 15.2059 8.27617 14.9352ZM10.3603 11.945C10.3603 11.6743 10.1409 11.4548 9.87009 11.4548H2.82039C2.54961 11.4548 2.33019 11.6743 2.33019 11.945C2.33019 12.2157 2.54961 12.4352 2.82039 12.4352H9.87009C10.1409 12.4352 10.3603 12.2157 10.3603 11.945ZM11.889 8.9548C11.889 8.68412 11.6696 8.46461 11.3988 8.46461H2.82039C2.54961 8.46461 2.33019 8.68412 2.33019 8.9548C2.33019 9.22549 2.54961 9.445 2.82039 9.445H11.3988C11.6696 9.445 11.889 9.22549 11.889 8.9548ZM13.7564 3.13912C13.7217 2.87078 13.4768 2.68108 13.2072 2.71588L12.5522 2.80069L12.4674 2.14569C12.4327 1.87725 12.1879 1.68755 11.9183 1.72245C11.6499 1.75716 11.4603 2.00304 11.4951 2.27147L11.5799 2.92647L10.9249 3.01127C10.6565 3.04598 10.4669 3.29176 10.5017 3.56029C10.5336 3.80745 10.7445 3.98765 10.9872 3.98765C11.0081 3.98765 11.0294 3.98627 11.0508 3.98353L11.7058 3.89873L11.7906 4.55373C11.8225 4.80088 12.0334 4.98108 12.2762 4.98108C12.2971 4.98108 12.3183 4.97971 12.3396 4.97696C12.608 4.94226 12.7976 4.69637 12.7628 4.42794L12.678 3.77294L13.333 3.68814C13.6016 3.65343 13.7911 3.40765 13.7564 3.13912Z" fill="#00183D"/>
</g>
<defs>
<clipPath id="clip0_1639_1010">
<rect width="20" height="20" fill="white"/>
</clipPath>
</defs>
</svg>
