<svg width="30" height="30" viewBox="0 0 30 30" fill="none" xmlns="http://www.w3.org/2000/svg">
<path d="M3.28179 19.4063L3.84 25.2169C3.8475 25.3015 3.8625 25.3848 3.885 25.4656C4.32643 27.0641 5.58964 28.0818 6.94393 28.0818C7.27393 28.0818 7.60714 28.0212 7.93714 27.8949C9.62143 27.2484 10.5471 25.107 9.99857 23.1209L9.10929 19.8999H9.38893L17.7343 24.8179C17.8864 24.9063 18.0493 24.9504 18.2132 24.9504C18.4093 24.9504 18.6043 24.8873 18.7757 24.7623C19.0929 24.5325 19.2857 24.126 19.2857 23.6878V18.458C21.1296 17.8936 22.5 15.9328 22.5 13.5868C22.5 11.2409 21.1296 9.27999 19.2857 8.7156V3.4858C19.2857 3.04767 19.0929 2.64237 18.7768 2.41131C18.4607 2.18024 18.0664 2.16004 17.7343 2.35575L9.39 7.27368H5.35714C2.40321 7.27368 0 10.1058 0 13.5868C0 16.2017 1.35536 18.4492 3.28179 19.4063ZM7.96071 23.9025C8.14393 24.5641 7.83643 25.2775 7.27393 25.4934C6.73928 25.6992 6.16821 25.381 5.955 24.7838L5.48464 19.8999H6.855L7.96071 23.9025ZM20.3571 13.5868C20.3571 14.5174 19.9232 15.3229 19.2857 15.7611V11.4138C19.9232 11.8507 20.3571 12.6563 20.3571 13.5868ZM17.1429 21.6449L10.7143 17.857V9.31661L17.1429 5.52873V21.6449ZM5.35714 9.79893H8.57143V17.3747H5.35714C3.585 17.3747 2.14286 15.6752 2.14286 13.5868C2.14286 11.4984 3.585 9.79893 5.35714 9.79893Z" fill="#00183D"/>
<path d="M26.7858 14.8494H28.9286C29.5211 14.8494 30.0001 14.2838 30.0001 13.5868C30.0001 12.8898 29.5211 12.3242 28.9286 12.3242H26.7858C26.1933 12.3242 25.7144 12.8898 25.7144 13.5868C25.7144 14.2838 26.1933 14.8494 26.7858 14.8494Z" fill="#00183D"/>
<path d="M26.7858 8.16636C27.0601 8.16636 27.3344 8.04262 27.5433 7.79641L29.0583 6.01106C29.4772 5.51737 29.4772 4.71939 29.0583 4.2257C28.6394 3.73202 27.9622 3.73202 27.5433 4.2257L26.0283 6.01106C25.6094 6.50474 25.6094 7.30272 26.0283 7.79641C26.2372 8.04389 26.5115 8.16636 26.7858 8.16636Z" fill="#00183D"/>
<path d="M27.5433 22.9479C27.7522 23.1941 28.0265 23.3179 28.3008 23.3179C28.5751 23.3179 28.8494 23.1941 29.0583 22.9479C29.4772 22.4542 29.4772 21.6563 29.0583 21.1626L27.5433 19.3772C27.1244 18.8835 26.4472 18.8835 26.0283 19.3772C25.6094 19.8709 25.6094 20.6689 26.0283 21.1626L27.5433 22.9479Z" fill="#00183D"/>
</svg>
