<svg width="20" height="20" viewBox="0 0 20 20" fill="none" xmlns="http://www.w3.org/2000/svg">
<g clip-path="url(#clip0_1639_1381)">
<g clip-path="url(#clip1_1639_1381)">
<path d="M3.27334 7.89285L3.32301 7.93275C3.38472 7.98213 3.46343 8.00494 3.54205 7.99527C3.62062 7.9858 3.692 7.94523 3.74029 7.8827C3.83462 7.76009 3.98543 7.67099 4.12424 7.65556C4.39857 7.62528 4.41181 7.74556 4.4169 7.79075C4.42395 7.8557 4.36714 8.04751 4.18438 8.2857C4.18243 8.28818 4.18047 8.29065 4.17866 8.29322L3.4201 9.34917C3.37767 9.40826 3.35853 9.48088 3.36648 9.55317L3.37634 9.64274C3.3942 9.80431 3.53967 9.92078 3.70124 9.90293L5.16128 9.74183C5.32285 9.72402 5.43927 9.57864 5.42146 9.41712L5.41432 9.35312C5.39656 9.19165 5.25132 9.07517 5.08966 9.09298L4.34933 9.17474L4.70371 8.68003C4.96356 8.34065 5.09556 7.99075 5.06556 7.71918C5.0119 7.23214 4.60485 6.94576 4.05267 7.00666C3.73776 7.04138 3.42824 7.21966 3.22439 7.48342C3.12648 7.61032 3.14805 7.79251 3.27334 7.89285Z" fill="#00183D"/>
<path d="M5.43247 8.41118C5.45028 8.57266 5.59566 8.68923 5.75718 8.67137L6.07328 8.63651L6.10804 8.95246C6.12585 9.11408 6.27118 9.23037 6.4327 9.21265L6.49661 9.2056C6.65827 9.18779 6.77465 9.04246 6.7568 8.88089L6.72199 8.56499L7.03808 8.53013C7.19951 8.51232 7.31603 8.36694 7.29827 8.20547L7.29122 8.14142C7.27341 7.97995 7.12789 7.86342 6.96656 7.88123L6.65046 7.91604L6.6157 7.60004C6.59784 7.43852 6.45251 7.32209 6.29099 7.33995L6.22699 7.347C6.06547 7.36485 5.94904 7.51009 5.96689 7.67157L6.00166 7.98757L5.68566 8.02242C5.52413 8.04028 5.40761 8.18571 5.42537 8.34713L5.43247 8.41118Z" fill="#00183D"/>
<path d="M7.35777 7.44219L7.40758 7.48214C7.46919 7.53152 7.54719 7.5549 7.62657 7.54466C7.70505 7.53518 7.77648 7.49461 7.82467 7.43214C7.9191 7.30943 8.06976 7.22028 8.20862 7.20495C8.4829 7.17466 8.49614 7.2949 8.50123 7.34009C8.50828 7.40509 8.45162 7.5969 8.26871 7.83504C8.26676 7.83747 8.26495 7.84004 8.26314 7.84256L7.50462 8.89856C7.46215 8.9576 7.4431 9.03017 7.4511 9.10251L7.46105 9.19213C7.47872 9.35365 7.624 9.47017 7.78562 9.45231L9.2458 9.29127C9.40737 9.27341 9.52366 9.12798 9.50585 8.96656L9.4988 8.90256C9.48094 8.74103 9.33575 8.62456 9.17432 8.64237L8.43385 8.72403L8.78823 8.22937C9.04828 7.89004 9.18009 7.54004 9.15028 7.26847C9.09656 6.78148 8.68938 6.49514 8.13724 6.55605C7.82252 6.59076 7.51291 6.769 7.309 7.03276C7.21086 7.15981 7.23258 7.34195 7.35777 7.44219Z" fill="#00183D"/>
<path d="M11.1023 7.8969L9.82156 8.03823C9.65999 8.05604 9.54356 8.20152 9.56137 8.36294L9.56832 8.42699C9.58618 8.58861 9.73165 8.70499 9.89303 8.68718L11.1739 8.54585C11.3354 8.52809 11.4519 8.38271 11.4341 8.22123L11.427 8.15709C11.4093 7.99571 11.2637 7.87914 11.1023 7.8969Z" fill="#00183D"/>
<path d="M9.4656 7.49419C9.48345 7.65576 9.62874 7.77218 9.79026 7.75433L11.071 7.61304C11.2324 7.59523 11.3491 7.44985 11.3314 7.28838L11.3242 7.22428C11.3065 7.06271 11.1609 6.94628 10.9997 6.96414L9.71883 7.10552C9.55712 7.12328 9.44074 7.26857 9.4586 7.43009L9.4656 7.49419Z" fill="#00183D"/>
<path d="M12.5276 8.28018C12.3202 8.30304 12.1703 8.49018 12.1932 8.69727C12.2161 8.90456 12.4031 9.05437 12.6104 9.0316C12.8178 9.00875 12.9677 8.82161 12.9448 8.61442C12.9218 8.40723 12.7347 8.25732 12.5276 8.28018Z" fill="#00183D"/>
<path d="M11.8288 7.20843L11.8935 7.20781C11.9733 7.20681 12.0489 7.17395 12.1035 7.11657C12.1583 7.059 12.1876 6.98176 12.1847 6.90238C12.1823 6.84453 12.1796 6.77253 12.3685 6.75162C12.5692 6.72953 12.5773 6.80405 12.5828 6.85338C12.5968 6.97952 12.562 7.0269 12.4501 7.15795C12.3212 7.30852 12.1267 7.53614 12.1717 7.94552C12.1895 8.10709 12.335 8.22356 12.4964 8.20571L12.5604 8.19866C12.7221 8.18085 12.8385 8.03552 12.8206 7.87395C12.8065 7.74561 12.8415 7.69776 12.9545 7.56595C13.0828 7.41624 13.277 7.19009 13.2322 6.785C13.181 6.32081 12.8065 6.04658 12.3001 6.10239C11.8179 6.15558 11.5162 6.47834 11.5318 6.92457C11.5374 7.084 11.6691 7.21005 11.8288 7.20843Z" fill="#00183D"/>
<path d="M15.5742 2.1157H9.25917V1.05823C9.25917 0.473806 8.78531 0 8.20094 0C7.61656 0 7.14271 0.473806 7.14271 1.05823V2.1157H0.827708C0.370711 2.1157 0 2.48641 0 2.9435V12.9652C0 13.4224 0.370711 13.793 0.827708 13.793H5.72286L3.27259 18.4488C3.00026 18.966 3.19893 19.6058 3.71616 19.8782C3.8733 19.9608 4.04197 20.0001 4.20811 20.0001C4.5882 20.0001 4.95596 19.7945 5.14544 19.4344L7.14271 15.6394V18.0951C7.14271 18.6794 7.61651 19.1531 8.20094 19.1531C8.78536 19.1531 9.25917 18.6796 9.25917 18.0951V15.6393L11.2563 19.4343C11.4458 19.7943 11.8136 19.9999 12.1937 19.9999C12.3599 19.9999 12.5286 19.9607 12.6856 19.878C13.2029 19.6055 13.4015 18.9659 13.1292 18.4485L10.679 13.7928H15.5741C16.031 13.7928 16.4018 13.4221 16.4018 12.965V2.94345C16.4018 2.48641 16.031 2.1157 15.5742 2.1157ZM14.7464 11.7001H1.65556V4.20864H14.7464V11.7001Z" fill="#00183D"/>
</g>
</g>
<defs>
<clipPath id="clip0_1639_1381">
<rect width="20" height="20" fill="white"/>
</clipPath>
<clipPath id="clip1_1639_1381">
<rect width="20" height="20" fill="white"/>
</clipPath>
</defs>
</svg>
