<svg width="25" height="25" viewBox="0 0 25 25" fill="none" xmlns="http://www.w3.org/2000/svg">
<g clip-path="url(#clip0_1170_5242)">
<path d="M21.3388 3.66121C18.9779 1.3002 15.8389 0 12.5 0C9.16111 0 6.02211 1.3002 3.66121 3.66121C1.3002 6.02211 0 9.16111 0 12.5C0 15.8389 1.3002 18.9779 3.66121 21.3388C6.02211 23.6998 9.16111 25 12.5 25C15.8389 25 18.9779 23.6998 21.3388 21.3388C23.6998 18.9779 25 15.8389 25 12.5C25 9.16111 23.6998 6.02211 21.3388 3.66121ZM12.5 24.004C6.15667 24.004 0.996016 18.8433 0.996016 12.5C0.996016 6.15667 6.15667 0.996016 12.5 0.996016C18.8433 0.996016 24.004 6.15667 24.004 12.5C24.004 18.8433 18.8433 24.004 12.5 24.004Z" fill="#00183D"/>
<path d="M14.7129 12.4004L18.1819 8.93147C18.8057 8.30762 18.8057 7.29263 18.1819 6.66882C17.8797 6.36663 17.4779 6.2002 17.0506 6.2002C16.6232 6.2002 16.2214 6.36668 15.9192 6.66882L12.4503 10.1378L8.98128 6.66887C8.67909 6.36668 8.2773 6.2002 7.84995 6.2002C7.42261 6.2002 7.02077 6.36663 6.71858 6.66882C6.09483 7.29268 6.09483 8.30767 6.71858 8.93147L10.1876 12.4004L6.71858 15.8694C6.09478 16.4933 6.09477 17.5083 6.71863 18.1322C7.02087 18.4343 7.42261 18.6006 7.84995 18.6006C8.27734 18.6006 8.67914 18.4343 8.98128 18.1321L12.4503 14.6631L15.9192 18.1321C16.2214 18.4343 16.6232 18.6006 17.0506 18.6006C17.4779 18.6006 17.8796 18.4343 18.1819 18.1321C18.8057 17.5083 18.8057 16.4932 18.1819 15.8694L14.7129 12.4004ZM17.4776 17.4277C17.3636 17.5418 17.2119 17.6046 17.0506 17.6046C16.8892 17.6046 16.7376 17.5418 16.6236 17.4278L12.8024 13.6066C12.709 13.5132 12.5823 13.4608 12.4503 13.4608C12.3182 13.4608 12.1915 13.5132 12.0981 13.6066L8.27695 17.4278C8.16295 17.5418 8.01126 17.6046 7.84995 17.6046C7.6886 17.6046 7.53696 17.5418 7.42291 17.4278C7.1874 17.1923 7.1874 16.8092 7.42291 16.5738L11.2441 12.7526C11.3375 12.6592 11.3899 12.5325 11.3899 12.4004C11.3899 12.2684 11.3375 12.1417 11.2441 12.0483L7.42291 8.22714C7.1874 7.99173 7.1874 7.60861 7.42291 7.37315C7.53696 7.25906 7.68865 7.19621 7.84995 7.19621C8.01126 7.19621 8.1629 7.25906 8.27695 7.37315L12.0981 11.1943C12.2926 11.3887 12.6079 11.3887 12.8024 11.1943L16.6236 7.3731C16.7376 7.25906 16.8892 7.19621 17.0506 7.19621C17.2119 7.19621 17.3635 7.25906 17.4776 7.37315C17.7131 7.60856 17.7131 7.99168 17.4776 8.22714L13.6564 12.0483C13.5631 12.1417 13.5106 12.2684 13.5106 12.4004C13.5106 12.5325 13.5631 12.6592 13.6564 12.7526L17.4776 16.5738C17.7131 16.8092 17.7131 17.1923 17.4776 17.4277Z" fill="#00183D"/>
<path d="M8.41191 3.34651C8.28721 3.10129 7.98731 3.00358 7.74229 3.12838C6.03965 3.99436 4.6031 5.30911 3.58781 6.93047C2.54379 8.5977 1.99194 10.5235 1.99194 12.5C1.99194 12.775 2.21495 12.998 2.48995 12.998C2.76495 12.998 2.98796 12.775 2.98796 12.5C2.98796 8.90024 4.98273 5.64939 8.19379 4.01613C8.43896 3.89143 8.53661 3.59163 8.41191 3.34651Z" fill="#00183D"/>
<path d="M10.4578 3.1966C10.4913 3.1966 10.5253 3.19316 10.5594 3.18614C11.1934 3.05471 11.8464 2.98808 12.5001 2.98808C12.7751 2.98808 12.9981 2.76507 12.9981 2.49007C12.9981 2.21507 12.7751 1.99207 12.5001 1.99207C11.7786 1.99207 11.0577 2.06567 10.3573 2.21084C10.0879 2.26667 9.91485 2.53021 9.97067 2.79954C10.0194 3.03479 10.2266 3.1966 10.4578 3.1966Z" fill="#00183D"/>
</g>
<defs>
<clipPath id="clip0_1170_5242">
<rect width="25" height="25" fill="white"/>
</clipPath>
</defs>
</svg>
