<svg width="30" height="30" viewBox="0 0 30 30" fill="none" xmlns="http://www.w3.org/2000/svg">
<path d="M15 1L0 4.375V6.625L15 3.25L30 6.625V4.375L15 1ZM8.07692 7.75C4.35397 7.75 0.721154 9.22656 0.721154 9.22656L0 9.54297V26.875H13.0168C13.418 27.5474 14.1481 28 15 28C15.8519 28 16.582 27.5474 16.9832 26.875H30V9.54297L29.2788 9.22656C29.2788 9.22656 25.646 7.75 21.9231 7.75C18.5562 7.75 15.5995 8.85303 15 9.08594C14.4005 8.85303 11.4438 7.75 8.07692 7.75ZM8.07692 10C10.308 10 12.6923 10.7031 13.8462 11.0898V23.6055C12.5616 23.1924 10.4522 22.6211 8.07692 22.6211C5.65204 22.6211 3.67788 23.166 2.30769 23.6055V11.0898C3.19561 10.7778 5.53936 10 8.07692 10ZM21.9231 10C24.4606 10 26.8044 10.7778 27.6923 11.0898V23.6055C26.3221 23.166 24.348 22.6211 21.9231 22.6211C19.5478 22.6211 17.4384 23.1924 16.1538 23.6055V11.0898C17.3077 10.7031 19.692 10 21.9231 10Z" fill="#00183D"/>
</svg>
