<svg width="35" height="35" viewBox="0 0 35 35" fill="none" xmlns="http://www.w3.org/2000/svg">
<g clip-path="url(#clip0_1150_2403)">
<g clip-path="url(#clip1_1150_2403)">
<g clip-path="url(#clip2_1150_2403)">
<path d="M34.9718 0H28.7157L18.289 11.6667C17.6127 12.343 17.6127 13.4138 18.289 14.0902L21.0507 16.8519C21.727 17.5282 22.7978 17.5282 23.4742 16.8519L34.9718 6.5942V0Z" fill="#F48516"/>
<path d="M18.3455 14.5411L21.1071 16.8519C21.7835 17.5282 22.8543 17.5282 23.5306 16.8519L34.9719 6.5942V0H28.7722" fill="#DB6309"/>
<path d="M21.0508 16.9082C21.7271 17.5845 22.798 17.5845 23.4743 16.9082L34.9719 6.5942V0" fill="#BC5006"/>
<path d="M18.2326 17.7536L14.3437 21.6425C14.7383 22.4316 14.6255 23.3897 13.9492 24.0097C13.1602 24.7987 11.8639 24.7987 11.0748 24.0097C10.2858 23.2206 10.2858 21.9243 11.0748 21.1353C11.6948 20.5153 12.6529 20.4026 13.442 20.7971L17.3308 16.9082L15.3582 14.9356L7.86225 18.2045L2.00073 33.1401L16.9927 27.2786L20.2616 19.7826L18.2326 17.7536Z" fill="#FCE95E"/>
<path d="M15.9558 13.7509L21.3757 19.1708L24.3248 16.2217L18.9049 10.8018L15.9558 13.7509Z" fill="#045A89"/>
<path d="M17.1397 14.9045L21.364 19.1288L24.3131 16.1798L20.0887 11.9555L17.1397 14.9045Z" fill="#074568"/>
<path d="M18.2326 17.7536L14.3437 21.6425C14.7383 22.4316 14.6255 23.3897 13.9492 24.0097C13.1602 24.7987 11.8639 24.7987 11.0748 24.0097C10.2858 23.2206 10.2858 21.9243 11.0748 21.1353C11.6948 20.5153 12.6529 20.4026 13.442 20.7971L17.3308 16.9082L15.3582 14.9356L2.00073 33.1401L16.9927 27.2786L20.2616 19.7826L18.2326 17.7536Z" fill="#F4CD27"/>
<path d="M2.00073 33.1401L16.9927 27.2786L20.2616 19.7826" fill="#EDB811"/>
<path d="M11.1313 24.0097C10.3422 23.2206 10.3422 21.9243 11.1313 21.1353C10.3422 21.9243 9.89132 23.6715 10.6804 24.4606C11.4694 25.2496 13.2166 24.7987 14.0057 24.0097C13.2166 24.7987 11.9203 24.7987 11.1313 24.0097Z" fill="#EDB811"/>
<path d="M13.4421 20.7971L14.0621 20.1771C13.1039 19.9517 11.6949 20.5717 11.075 21.1916C11.7513 20.5153 12.7094 20.4026 13.4421 20.7971Z" fill="#FCE95E"/>
<path d="M14.344 21.6425C14.7385 22.4316 14.6258 23.3897 13.9495 24.0097C14.5694 23.3897 15.1894 21.9243 14.964 21.0225L14.344 21.6425Z" fill="#FCE95E"/>
<path d="M0.817126 35C1.25291 35 1.60618 34.6467 1.60618 34.211C1.60618 33.7752 1.25291 33.4219 0.817126 33.4219C0.381346 33.4219 0.0280762 33.7752 0.0280762 34.211C0.0280762 34.6467 0.381346 35 0.817126 35Z" fill="#DB6309"/>
<path d="M2.84619 34.38H21.6707C21.6707 34.38 34.3518 34.7182 28.9412 31.8438C23.3051 28.8567 30.2375 26.2077 30.2375 26.2077" fill="#C9D6D6"/>
</g>
</g>
</g>
<defs>
<clipPath id="clip0_1150_2403">
<rect width="35" height="35" fill="white"/>
</clipPath>
<clipPath id="clip1_1150_2403">
<rect width="35" height="35" fill="white"/>
</clipPath>
<clipPath id="clip2_1150_2403">
<rect width="35" height="35" fill="white"/>
</clipPath>
</defs>
</svg>
