<svg width="35" height="35" viewBox="0 0 35 35" fill="none" xmlns="http://www.w3.org/2000/svg">
<g clip-path="url(#clip0_1103_1131)">
<path d="M15.5818 33.8358C24.1873 33.8358 31.1635 26.8596 31.1635 18.254C31.1635 9.64847 24.1873 2.67227 15.5818 2.67227C6.97619 2.67227 0 9.64847 0 18.254C0 26.8596 6.97619 33.8358 15.5818 33.8358Z" fill="#00183D"/>
<path d="M22.5186 8.94575C22.7919 7.98012 21.6116 6.80062 19.8825 6.31128C18.1533 5.82193 16.53 6.20804 16.2568 7.17368C15.9835 8.13932 17.1637 9.31881 18.8929 9.80816C20.622 10.2975 22.2453 9.91139 22.5186 8.94575Z" fill="#335992"/>
<path d="M18.9207 31.535C10.3152 31.535 3.33908 24.5588 3.33908 15.9533C3.33908 11.3558 5.33073 7.22384 8.49789 4.37175C3.45338 6.95109 0 12.199 0 18.2537C0 26.8593 6.97614 33.8353 15.5816 33.8353C19.5895 33.8353 23.2436 32.3216 26.0045 29.8353C23.8792 30.922 21.4716 31.535 18.9207 31.535Z" fill="#001C46"/>
<path d="M8.88556 18.477C7.72844 18.477 6.79034 19.4151 6.79034 20.5722H10.9808C10.9808 19.4151 10.0427 18.477 8.88556 18.477Z" fill="#FBB786"/>
<path d="M27.1614 18.477C26.0043 18.477 25.0662 19.4151 25.0662 20.5722H29.2567C29.2567 19.4151 28.3186 18.477 27.1614 18.477Z" fill="#FBB786"/>
<path d="M13.1484 1.20985C11.1964 1.49409 9.76595 2.97729 9.42251 4.76215C9.39209 4.92033 9.27184 5.04577 9.11469 5.08139C8.9576 5.117 8.79504 5.05555 8.69933 4.92594C7.62117 3.46448 5.69343 2.74234 3.81095 3.32421C1.72996 3.96761 0.414449 6.07656 0.749479 8.22872C0.954625 9.54669 1.70822 10.6221 2.72958 11.2804H2.72951L9.95469 16.2802C11.0364 17.0288 12.5273 16.6906 13.1799 15.5484L17.4551 8.06726C18.1697 7.00215 18.4244 5.63202 18.0093 4.28384C17.3726 2.21563 15.2898 0.898068 13.1484 1.20985Z" fill="#FBB786"/>
<path d="M32.3749 5.06279C30.8686 4.68053 29.38 5.3281 28.5913 6.52336C28.5214 6.62925 28.3961 6.68428 28.271 6.66281C28.1459 6.64128 28.0461 6.54756 28.0156 6.42431C27.6721 5.03531 26.4873 3.92796 24.9417 3.78338C23.2332 3.62349 21.6393 4.76119 21.2335 6.42848C20.985 7.44943 21.2088 8.45951 21.7534 9.24687H21.7534L25.5023 15.0661C26.0636 15.9374 27.2505 16.1412 28.0703 15.507L33.4393 11.3531C34.2808 10.7936 34.8798 9.87352 34.9846 8.76699C35.1454 7.06962 34.0274 5.48225 32.3749 5.06279Z" fill="#FBB786"/>
<path d="M13.2385 14.6462L6.01332 9.64643H6.01338C4.99209 8.98813 4.23843 7.9127 4.03328 6.59473C3.83586 5.32639 4.21204 4.07336 4.97999 3.12617C4.5937 3.13971 4.20152 3.20349 3.81105 3.32421C1.73012 3.96761 0.414476 6.07657 0.749505 8.22872C0.954652 9.54669 1.70825 10.6221 2.7296 11.2804H2.72953L9.95471 16.2802C11.0364 17.0288 12.5272 16.6906 13.1799 15.5484L13.5835 14.8421C13.4652 14.7879 13.3496 14.7231 13.2385 14.6462Z" fill="#C88400"/>
<path d="M28.7861 13.4319L25.0372 7.61267H25.0373C24.4927 6.8253 24.2688 5.81529 24.5173 4.79428C24.6061 4.42924 24.7519 4.08956 24.9435 3.78338C24.9429 3.78331 24.9424 3.78324 24.9418 3.78324C23.2333 3.62335 21.6393 4.76105 21.2335 6.42834C20.9851 7.44942 21.2089 8.45937 21.7535 9.24673H21.7534L25.5023 15.066C26.0636 15.9373 27.2505 16.141 28.0703 15.5068L29.7911 14.1756C29.3922 14.063 29.03 13.8106 28.7861 13.4319Z" fill="#C88400"/>
<path d="M19.1546 28.8006C15.6713 28.8006 12.8475 25.9768 12.8475 22.4935H25.4618C25.4618 25.9769 22.638 28.8006 19.1546 28.8006Z" fill="#001433"/>
<path d="M14.3864 22.4935V23.4781C14.3864 23.8932 14.7229 24.2297 15.138 24.2297H23.1711C23.5863 24.2297 23.9228 23.8931 23.9228 23.4781V22.4935H14.3864Z" fill="#F2F2F2"/>
<path d="M19.287 26.184C17.5821 25.3919 15.6901 25.507 14.156 26.3285C15.3088 27.8311 17.1217 28.8007 19.1619 28.8007C20.061 28.8007 20.9154 28.6112 21.6894 28.2722C21.1216 27.3936 20.3074 26.6581 19.287 26.184Z" fill="#865800"/>
</g>
<defs>
<clipPath id="clip0_1103_1131">
<rect width="35" height="35" fill="white"/>
</clipPath>
</defs>
</svg>
