<svg width="20" height="20" viewBox="0 0 20 20" fill="none" xmlns="http://www.w3.org/2000/svg">
<g clip-path="url(#clip0_1639_1321)">
<path d="M20 10.5077C20 11.0676 19.5461 11.522 18.9857 11.522C18.9837 11.522 18.9796 11.522 18.9755 11.522H17.0457V16.9169C17.0457 17.4768 16.5913 17.9312 16.0314 17.9312H12.7003C12.1403 17.9312 11.6859 17.4768 11.6859 16.9169V14.0574C11.6859 13.1252 10.9272 12.367 9.99548 12.367C9.06329 12.367 8.30455 13.1252 8.30455 14.0574V16.9169C8.30455 17.4768 7.85012 17.9312 7.2902 17.9312H3.95856C3.39863 17.9312 2.9442 17.4768 2.9442 16.9169V11.522H1.0144C0.586339 11.522 0.203928 11.2542 0.0598897 10.8515C-0.0846556 10.4483 0.0380812 9.99848 0.367239 9.72562L9.34832 2.30157C9.72363 1.99168 10.2663 1.99168 10.6411 2.30157L19.5395 9.65664C19.8164 9.83821 20 10.1516 20 10.5077Z" fill="#00183D"/>
</g>
<defs>
<clipPath id="clip0_1639_1321">
<rect width="20" height="20" fill="white"/>
</clipPath>
</defs>
</svg>
