<svg width="20" height="20" viewBox="0 0 20 20" fill="none" xmlns="http://www.w3.org/2000/svg">
<g clip-path="url(#clip0_1639_1433)">
<path d="M19.6666 15.5376H17.4833L18.258 15.3299C18.4356 15.2823 18.541 15.0996 18.4936 14.9219L17.976 12.9903V12.9899L17.631 11.7019H17.6306L15.0427 2.04297C14.9957 1.86496 14.8127 1.75929 14.6347 1.8073L11.4147 2.66996C11.3297 2.69261 11.2567 2.74863 11.2123 2.82531C11.168 2.90164 11.1563 2.99265 11.179 3.07797L11.6967 5.00964V5.00996L11.8953 5.75163C11.6257 5.61597 11.322 5.53765 11 5.53765H1.33336C1.21336 5.53765 1.10269 5.6023 1.04336 5.70663C0.98402 5.81128 0.9857 5.93929 1.04769 6.0423L1.43203 6.68296C1.74804 7.20995 1.74804 7.86495 1.43203 8.39194L1.14468 8.87093H0.333357C0.213358 8.87093 0.102694 8.93558 0.043358 9.03991C-0.0159779 9.14456 -0.0142982 9.27257 0.0476939 9.37558L0.432029 10.0162C0.748044 10.5432 0.748044 11.1982 0.432029 11.7252L0.0476939 12.3659C-0.0142982 12.4689 -0.0159779 12.5972 0.043358 12.7015C0.102694 12.8062 0.213358 12.8709 0.333357 12.8709H1.14468L1.43203 13.3496C1.74804 13.8765 1.74804 14.5315 1.43203 15.0585L1.14468 15.5375H0.333357C0.149373 15.5375 3.77279e-05 15.6869 3.77279e-05 15.8708V17.8708C3.77279e-05 18.0548 0.149373 18.2042 0.333357 18.2042H19.6666C19.851 18.2042 20 18.0548 20 17.8708V15.8708C20 15.6869 19.851 15.5376 19.6666 15.5376ZM15.4403 11.254C15.4113 11.2616 15.3823 11.2653 15.3536 11.2653C15.2063 11.2653 15.0717 11.167 15.032 11.0183L13.9966 7.15433C13.9493 6.97667 14.0546 6.79366 14.2326 6.74632C14.4103 6.698 14.5933 6.80398 14.6406 6.98198L15.676 10.8457C15.7233 11.0236 15.618 11.2063 15.4403 11.254ZM15.0027 4.46929L15.1753 5.11328L12.5993 5.80359L12.427 5.15925L15.0027 4.46929ZM14.485 2.5373L14.8304 3.82531L12.2544 4.51562L11.9094 3.22761L14.485 2.5373ZM2.00371 6.33995L1.92238 6.20429H11C11.6077 6.20429 12.116 6.61531 12.276 7.17195L12.3087 7.29429C12.3237 7.37327 12.3333 7.45429 12.3333 7.53761C12.3333 8.27261 11.7353 8.87093 11 8.87093H10H1.92234L2.00367 8.73526C2.44703 7.99628 2.44703 7.07862 2.00371 6.33995ZM10.3333 10.871C10.3333 11.0549 10.1844 11.2043 10 11.2043H2.66667C2.48269 11.2043 2.33335 11.0549 2.33335 10.871C2.33335 10.687 2.48269 10.5376 2.66667 10.5376H9.99998C10.1844 10.5376 10.3333 10.6869 10.3333 10.871ZM11 15.5376H1.92234L2.00367 15.4019C2.44699 14.663 2.44699 13.7453 2.00367 13.0066L1.92234 12.8709H9.99998H11C11.7353 12.8709 12.3333 13.4689 12.3333 14.2042C12.3333 14.9393 11.7353 15.5376 11 15.5376ZM12.4867 15.5376C12.8047 15.1833 13 14.7166 13 14.2043C13 13.253 12.332 12.4563 11.4406 12.2546C11.7863 11.895 12 11.408 12 10.871C12 10.334 11.7863 9.84663 11.4406 9.48698C11.9513 9.37163 12.3883 9.06132 12.6686 8.63765L14.5176 15.5376H12.4867V15.5376ZM14.4973 12.8869L17.0733 12.1966L17.2457 12.8406L14.67 13.5309L14.4973 12.8869ZM14.8423 14.1746L17.4183 13.4846L17.7633 14.7723L15.1877 15.4626L14.8423 14.1746Z" fill="#00183D"/>
<path d="M11.0001 13.8709H3.66682C3.48248 13.8709 3.3335 14.0202 3.3335 14.2042C3.3335 14.3882 3.48248 14.5375 3.66682 14.5375H11.0001C11.1845 14.5375 11.3334 14.3882 11.3334 14.2042C11.3335 14.0202 11.1845 13.8709 11.0001 13.8709Z" fill="#00183D"/>
<path d="M3.66682 7.87089H11.0001C11.1845 7.87089 11.3334 7.72155 11.3334 7.53757C11.3334 7.35358 11.1845 7.20425 11.0001 7.20425H3.66682C3.48248 7.20425 3.3335 7.35358 3.3335 7.53757C3.3335 7.72155 3.48248 7.87089 3.66682 7.87089Z" fill="#00183D"/>
</g>
<defs>
<clipPath id="clip0_1639_1433">
<rect width="20" height="20" fill="white"/>
</clipPath>
</defs>
</svg>
