<svg width="20" height="21" viewBox="0 0 20 21" fill="none" xmlns="http://www.w3.org/2000/svg">
<g clip-path="url(#clip0_1134_2885)">
<path fill-rule="evenodd" clip-rule="evenodd" d="M8.138 0.315C8.58591 0.180634 9.05903 0.152838 9.5196 0.233831C9.98016 0.314825 10.4154 0.502364 10.7906 0.78148C11.1658 1.0606 11.4706 1.42356 11.6805 1.84139C11.8905 2.25923 11.9999 2.72037 12 3.188V17.812C11.9999 18.2796 11.8905 18.7408 11.6805 19.1586C11.4706 19.5764 11.1658 19.9394 10.7906 20.2185C10.4154 20.4976 9.98016 20.6852 9.5196 20.7662C9.05903 20.8472 8.58591 20.8194 8.138 20.685L2.138 18.885C1.5201 18.6996 0.97841 18.32 0.593282 17.8025C0.208154 17.285 0.000105789 16.6571 0 16.012V4.988C0.000105789 4.3429 0.208154 3.71501 0.593282 3.19748C0.97841 2.67996 1.5201 2.30036 2.138 2.115L8.138 0.315ZM13 2.5C13 2.23478 13.1054 1.98043 13.2929 1.79289C13.4804 1.60536 13.7348 1.5 14 1.5H17C17.7956 1.5 18.5587 1.81607 19.1213 2.37868C19.6839 2.94129 20 3.70435 20 4.5V5.5C20 5.76522 19.8946 6.01957 19.7071 6.20711C19.5196 6.39464 19.2652 6.5 19 6.5C18.7348 6.5 18.4804 6.39464 18.2929 6.20711C18.1054 6.01957 18 5.76522 18 5.5V4.5C18 4.23478 17.8946 3.98043 17.7071 3.79289C17.5196 3.60536 17.2652 3.5 17 3.5H14C13.7348 3.5 13.4804 3.39464 13.2929 3.20711C13.1054 3.01957 13 2.76522 13 2.5ZM19 14.5C19.2652 14.5 19.5196 14.6054 19.7071 14.7929C19.8946 14.9804 20 15.2348 20 15.5V16.5C20 17.2956 19.6839 18.0587 19.1213 18.6213C18.5587 19.1839 17.7956 19.5 17 19.5H14C13.7348 19.5 13.4804 19.3946 13.2929 19.2071C13.1054 19.0196 13 18.7652 13 18.5C13 18.2348 13.1054 17.9804 13.2929 17.7929C13.4804 17.6054 13.7348 17.5 14 17.5H17C17.2652 17.5 17.5196 17.3946 17.7071 17.2071C17.8946 17.0196 18 16.7652 18 16.5V15.5C18 15.2348 18.1054 14.9804 18.2929 14.7929C18.4804 14.6054 18.7348 14.5 19 14.5ZM7 9.5C6.73478 9.5 6.48043 9.60536 6.29289 9.79289C6.10536 9.98043 6 10.2348 6 10.5C6 10.7652 6.10536 11.0196 6.29289 11.2071C6.48043 11.3946 6.73478 11.5 7 11.5H7.001C7.26622 11.5 7.52057 11.3946 7.70811 11.2071C7.89564 11.0196 8.001 10.7652 8.001 10.5C8.001 10.2348 7.89564 9.98043 7.70811 9.79289C7.52057 9.60536 7.26622 9.5 7.001 9.5H7Z" fill="#00183D"/>
<path d="M19 10.5L17 12.5M14 10.5H19H14ZM19 10.5L17 8.5L19 10.5Z" stroke="#00183D" stroke-width="2" stroke-linecap="round" stroke-linejoin="round"/>
</g>
<defs>
<clipPath id="clip0_1134_2885">
<rect width="20" height="21" fill="white"/>
</clipPath>
</defs>
</svg>
