<svg width="20" height="20" viewBox="0 0 20 20" fill="none" xmlns="http://www.w3.org/2000/svg">
<g clip-path="url(#clip0_1177_5429)">
<g clip-path="url(#clip1_1177_5429)">
<path d="M17.3962 5.48263L16.6314 3.43172L16.8944 3.07727C17.0315 2.89243 16.9928 2.63148 16.808 2.49439L13.5564 0.0820238C13.3716 -0.0551008 13.1106 -0.0164759 12.9735 0.168399L4.53053 11.5478L3.55682 12.8005C3.48803 12.889 3.45778 13.0016 3.47295 13.1127C3.48811 13.2237 3.54745 13.324 3.63749 13.3908L4.95728 14.3703L3.86628 15.842C3.72924 16.0269 3.76803 16.2879 3.95286 16.4249C4.02745 16.4802 4.11445 16.5069 4.20065 16.5069C4.32815 16.5069 4.45394 16.4486 4.53569 16.3383L5.62644 14.8669L6.9141 15.8226C6.98869 15.8779 7.07577 15.9046 7.16206 15.9046C7.28906 15.9046 7.41448 15.8468 7.49627 15.7372L8.44851 14.462C8.44864 14.4618 8.44872 14.4617 8.44889 14.4614C8.44902 14.4613 8.44918 14.4611 8.44931 14.4609L16.0396 4.22964L16.5363 5.56176L12.7245 10.6978C12.5873 10.8826 12.626 11.1436 12.8107 11.2807C12.8854 11.3361 12.9724 11.3628 13.0587 11.3628C13.1861 11.3628 13.3119 11.3046 13.3936 11.1945L17.3403 5.87655C17.4244 5.76318 17.4455 5.61493 17.3962 5.48263ZM7.07714 14.9057L4.47624 12.9755L4.94165 12.3767L7.53081 14.2982L7.07714 14.9057ZM8.02831 13.6297L5.44561 11.713L10.9796 4.25426L13.53 6.21372L8.02831 13.6297ZM14.0265 5.54434L11.4762 3.58493L13.3945 0.999563L15.9769 2.91539L14.0265 5.54434Z" fill="#00183D"/>
<path d="M15.1431 17.1421H2.99424C2.76416 17.1421 2.57758 17.3286 2.57758 17.5587C2.57758 17.7889 2.76416 17.9754 2.99424 17.9754H15.1431C15.3731 17.9754 15.5597 17.7889 15.5597 17.5587C15.5597 17.3286 15.3732 17.1421 15.1431 17.1421Z" fill="#00183D"/>
<path d="M12.106 19.1667H6.03129C5.80117 19.1667 5.61462 19.3532 5.61462 19.5833C5.61462 19.8135 5.80117 20 6.03129 20H12.1061C12.3362 20 12.5227 19.8135 12.5227 19.5833C12.5227 19.3532 12.3362 19.1667 12.106 19.1667Z" fill="#00183D"/>
</g>
</g>
<defs>
<clipPath id="clip0_1177_5429">
<rect width="20" height="20" fill="white"/>
</clipPath>
<clipPath id="clip1_1177_5429">
<rect width="20" height="20" fill="white"/>
</clipPath>
</defs>
</svg>
