<svg width="20" height="20" viewBox="0 0 20 20" fill="none" xmlns="http://www.w3.org/2000/svg">
<g clip-path="url(#clip0_1639_1503)">
<g clip-path="url(#clip1_1639_1503)">
<path d="M11.9077 14.588C11.9077 14.5971 11.9077 14.6063 11.9077 14.6154H11.9231L11.9077 14.588Z" fill="#00183D"/>
<path d="M10 0C4.48606 0 0 4.48606 0 10C0 15.5139 4.48606 20 10 20C15.5139 20 20 15.5139 20 10C20 4.48606 15.5139 0 10 0ZM10 16.1538C8.91923 16.1538 8.07692 15.6611 8.07692 14.6154H11.9231C11.9087 15.6428 11.0716 16.1538 10 16.1538ZM15.3846 13.8462H4.61538V12.5L5.96154 10.7692V9.21635C5.96154 7.27356 6.72212 5.59375 8.65385 5.1649L8.84615 3.84615H11.1538L11.3462 5.1649C13.2692 5.59375 14.0385 7.28029 14.0385 9.21635V10.7692L15.3846 12.5V13.8462Z" fill="#00183D"/>
</g>
</g>
<defs>
<clipPath id="clip0_1639_1503">
<rect width="20" height="20" fill="white"/>
</clipPath>
<clipPath id="clip1_1639_1503">
<rect width="20" height="20" fill="white"/>
</clipPath>
</defs>
</svg>
