<svg width="20" height="20" viewBox="0 0 20 20" fill="none" xmlns="http://www.w3.org/2000/svg">
<path d="M7.36365 11.1894C7.2508 11.0006 7.00619 10.9389 6.81728 11.0517C5.56596 11.7993 4.65381 13.0375 4.31467 14.4487C4.26327 14.6627 4.39506 14.8778 4.60897 14.9292C4.6403 14.9367 4.67159 14.9403 4.70241 14.9403C4.88237 14.9403 5.04561 14.8176 5.08948 14.6349C5.37881 13.4308 6.15756 12.3741 7.22599 11.7357C7.41482 11.623 7.47646 11.3783 7.36365 11.1894Z" fill="#00183D"/>
<path d="M9.6029 10.2851C9.17711 10.2851 8.75313 10.3345 8.34255 10.432C8.12848 10.4828 7.99614 10.6975 8.04692 10.9116C8.0904 11.0948 8.25383 11.2181 8.43422 11.2181C8.46469 11.2181 8.49567 11.2146 8.52657 11.2072C8.87692 11.1241 9.23903 11.0819 9.6029 11.0819C9.8229 11.0819 10.0013 10.9035 10.0013 10.6835C10.0013 10.4635 9.8229 10.2851 9.6029 10.2851Z" fill="#00183D"/>
<path d="M17.1047 11.1013C16.4177 10.4813 15.5958 10.0081 14.6889 9.73143C15.731 9.09948 16.4288 7.95424 16.4288 6.64909C16.4288 4.66288 14.8129 3.04694 12.8266 3.04694C12.6379 3.04694 12.4525 3.06159 12.2715 3.08971C11.5778 2.43007 10.64 2.0246 9.60938 2.0246C8.57871 2.0246 7.64098 2.43003 6.94719 3.08975C6.76621 3.06163 6.58082 3.04698 6.39203 3.04698C4.40582 3.04698 2.78992 4.66292 2.78992 6.64913C2.78992 7.95428 3.4877 9.09948 4.52973 9.73143C1.9107 10.5306 0 12.9694 0 15.8465C0 16.0665 0.178398 16.2449 0.398398 16.2449H3.1216H13.5438C14.1429 17.2786 15.2615 17.9754 16.5398 17.9754C18.4477 17.9754 20 16.4232 20 14.5152C20 12.7996 18.7449 11.3719 17.1047 11.1013ZM15.8311 11.1281C15.5067 11.1958 15.199 11.3093 14.9147 11.4611C14.5623 11.0354 14.1597 10.6528 13.7161 10.3222C14.4841 10.4454 15.2005 10.7251 15.8311 11.1281ZM12.8887 3.84534C14.4069 3.87854 15.632 5.12299 15.632 6.64909C15.632 8.19592 14.3735 9.45444 12.8266 9.45444C12.3988 9.45444 11.9932 9.3578 11.63 9.18576C12.7363 8.50479 13.4756 7.2826 13.4756 5.89092C13.4756 5.14026 13.2604 4.43905 12.8887 3.84534ZM7.21902 3.96831C7.40543 3.73698 7.62453 3.53323 7.86941 3.36405C8.36434 3.02225 8.96371 2.82143 9.60934 2.82143C10.255 2.82143 10.8543 3.02225 11.3492 3.36405C11.5941 3.53323 11.8132 3.73698 11.9996 3.96831C12.4239 4.49487 12.6787 5.16354 12.6787 5.89084C12.6787 7.12537 11.9457 8.19131 10.8925 8.67815C10.6266 8.80104 10.3404 8.88701 10.0403 8.92944C9.89937 8.94932 9.75562 8.9603 9.60934 8.9603C9.46301 8.9603 9.31926 8.94936 9.17832 8.92944C8.8782 8.88705 8.59203 8.80108 8.32613 8.67815C7.27285 8.19131 6.53988 7.12537 6.53988 5.89084C6.53988 5.1635 6.79469 4.49487 7.21902 3.96831ZM3.58672 6.64909C3.58672 5.12299 4.8118 3.87854 6.33004 3.8453C5.95836 4.43901 5.74312 5.14018 5.74312 5.89084C5.74312 7.28256 6.48238 8.50471 7.58871 9.18569C7.22547 9.35772 6.81992 9.45436 6.39207 9.45436C4.8452 9.4544 3.58672 8.19592 3.58672 6.64909ZM2.735 15.4481H0.810859C0.994727 12.8454 2.96684 10.729 5.50266 10.3222C3.91672 11.5043 2.8552 13.3521 2.735 15.4481ZM13.2074 15.4481H3.53285V15.4481C3.68168 13.1539 5.10695 11.2022 7.10363 10.2972C7.5702 10.0856 8.06789 9.93115 8.58789 9.84299C8.92012 9.78666 9.26133 9.75717 9.60934 9.75717C9.95734 9.75717 10.2986 9.78666 10.6307 9.84299C11.1507 9.93119 11.6484 10.0856 12.115 10.2972C12.9447 10.6733 13.6757 11.2298 14.2574 11.9168C13.5358 12.5514 13.0795 13.481 13.0795 14.5153C13.0796 14.8384 13.1242 15.1512 13.2074 15.4481ZM18.5627 16.2449C18.0738 16.8158 17.3486 17.1786 16.5398 17.1786C15.731 17.1786 15.0057 16.8158 14.5169 16.2448C14.3164 16.0107 14.1555 15.7417 14.0454 15.448C13.9363 15.1576 13.8763 14.8433 13.8763 14.5152C13.8763 13.7431 14.2068 13.0471 14.7334 12.5602C14.9285 12.3799 15.1502 12.2281 15.3923 12.112C15.74 11.9453 16.1291 11.8518 16.5398 11.8518C16.6105 11.8518 16.6804 11.8554 16.7498 11.8608C17.3236 11.9059 17.8467 12.1332 18.2612 12.4852C18.8369 12.9742 19.2032 13.7026 19.2032 14.5153C19.2032 14.676 19.1881 14.8333 19.1607 14.9863C19.0755 15.4612 18.8643 15.8926 18.5627 16.2449Z" fill="#00183D"/>
<path d="M18.5738 13.8914C18.4999 13.6641 18.2898 13.5115 18.0508 13.5115H17.6875C17.4587 13.5115 17.2574 13.3652 17.1867 13.1476L17.0744 12.802V12.802C17.0006 12.5747 16.7904 12.4221 16.5515 12.4221C16.3125 12.4221 16.1024 12.5748 16.0286 12.802L15.9163 13.1476C15.8457 13.3652 15.6444 13.5115 15.4156 13.5115H15.0522C14.8133 13.5115 14.6031 13.6641 14.5293 13.8913C14.4554 14.1186 14.5357 14.3657 14.729 14.5061L15.023 14.7197C15.2081 14.8542 15.2849 15.0908 15.2142 15.3084L15.102 15.654C15.0282 15.8812 15.1084 16.1283 15.3017 16.2687C15.495 16.4092 15.7548 16.4092 15.9482 16.2687L16.2421 16.0552C16.4272 15.9207 16.676 15.9207 16.8611 16.0552L17.1551 16.2688C17.2517 16.339 17.365 16.3741 17.4782 16.3741C17.5916 16.3741 17.7048 16.339 17.8016 16.2687C17.9948 16.1282 18.0751 15.8811 18.0012 15.654L17.889 15.3084C17.8183 15.0908 17.8952 14.8542 18.0803 14.7197L18.3742 14.5061C18.5674 14.3657 18.6477 14.1186 18.5738 13.8914ZM17.0712 15.2638C16.7392 15.1216 16.3637 15.1216 16.0318 15.2638C16.0646 14.9042 15.9485 14.547 15.7107 14.2753C16.0628 14.1954 16.3666 13.9747 16.5515 13.6645C16.7363 13.9746 17.0402 14.1953 17.3923 14.2753C17.1544 14.547 17.0384 14.9042 17.0712 15.2638Z" fill="#FBB786"/>
</svg>
