<svg width="75" height="75" viewBox="0 0 75 75" fill="none" xmlns="http://www.w3.org/2000/svg">
<g clip-path="url(#clip0_1639_2466)">
<path d="M18.75 0C16.1719 0 14.0625 2.10938 14.0625 4.6875V70.3125C14.0625 72.8906 16.1719 75 18.75 75H65.625C68.2031 75 70.3125 72.8906 70.3125 70.3125V18.75L51.5625 0H18.75Z" fill="#E2E5E7"/>
<path d="M56.25 18.75H70.3125L51.5625 0V14.0625C51.5625 16.6406 53.6719 18.75 56.25 18.75Z" fill="#B0B7BD"/>
<path d="M70.3125 32.8125L56.25 18.75H70.3125V32.8125Z" fill="#CAD1D8"/>
<path d="M60.9375 60.9375C60.9375 62.2266 59.8828 63.2812 58.5938 63.2812H7.03125C5.74219 63.2812 4.6875 62.2266 4.6875 60.9375V37.5C4.6875 36.2109 5.74219 35.1562 7.03125 35.1562H58.5938C59.8828 35.1562 60.9375 36.2109 60.9375 37.5V60.9375Z" fill="#F15642"/>
<path d="M14.9039 44.407C14.9039 43.7883 15.3914 43.1133 16.1766 43.1133H20.5055C22.943 43.1133 25.1367 44.7445 25.1367 47.8711C25.1367 50.8336 22.943 52.4836 20.5055 52.4836H17.3766V54.9586C17.3766 55.7836 16.8516 56.25 16.1766 56.25C15.5578 56.25 14.9039 55.7836 14.9039 54.9586V44.407ZM17.3766 45.4734V50.1422H20.5055C21.7617 50.1422 22.7555 49.0336 22.7555 47.8711C22.7555 46.5609 21.7617 45.4734 20.5055 45.4734H17.3766Z" fill="white"/>
<path d="M28.8071 56.25C28.1883 56.25 27.5133 55.9125 27.5133 55.0898V44.4445C27.5133 43.7719 28.1883 43.282 28.8071 43.282H33.0985C41.6625 43.282 41.475 56.25 33.2672 56.25H28.8071ZM29.9883 45.5695V53.9648H33.0985C38.1586 53.9648 38.3836 45.5695 33.0985 45.5695H29.9883Z" fill="white"/>
<path d="M44.5125 45.7195V48.6984H49.2914C49.9664 48.6984 50.6414 49.3734 50.6414 50.0273C50.6414 50.6461 49.9664 51.1523 49.2914 51.1523H44.5125V55.0875C44.5125 55.7437 44.0461 56.2477 43.3898 56.2477C42.5648 56.2477 42.0609 55.7437 42.0609 55.0875V44.4422C42.0609 43.7695 42.5672 43.2797 43.3898 43.2797H49.9687C50.7937 43.2797 51.2812 43.7695 51.2812 44.4422C51.2812 45.0422 50.7937 45.7172 49.9687 45.7172H44.5125V45.7195Z" fill="white"/>
<path d="M58.5938 63.2812H14.0625V65.625H58.5938C59.8828 65.625 60.9375 64.5703 60.9375 63.2812V60.9375C60.9375 62.2266 59.8828 63.2812 58.5938 63.2812Z" fill="#CAD1D8"/>
</g>
<defs>
<clipPath id="clip0_1639_2466">
<rect width="75" height="75" fill="white"/>
</clipPath>
</defs>
</svg>
