<svg width="75" height="75" viewBox="0 0 75 75" fill="none" xmlns="http://www.w3.org/2000/svg">
<g clip-path="url(#clip0_1639_2675)">
<g clip-path="url(#clip1_1639_2675)">
<path d="M37.5 75C58.2107 75 75 58.2107 75 37.5C75 16.7893 58.2107 0 37.5 0C16.7893 0 0 16.7893 0 37.5C0 58.2107 16.7893 75 37.5 75Z" fill="#F15642"/>
<path d="M67.4185 60.1043L58.3622 37.6483C58.3458 37.5551 58.3154 37.4643 58.2697 37.3741C58.2269 37.0682 58.0376 36.7694 57.6814 36.5367L26.6378 16.1977C25.8292 15.668 25.1677 16.0254 25.1677 16.9922V17.2922V17.5922V58.0078V58.3078V58.5938L31.4935 74.5149C33.4499 74.8301 35.455 75 37.4999 75C49.7197 75 60.5718 69.1524 67.4185 60.1043Z" fill="#CF3E2A"/>
<path d="M25.1677 16.9922C25.1677 16.0254 25.8292 15.668 26.6378 16.1977L57.6814 36.5367C58.49 37.0664 58.49 37.9336 57.6814 38.4639L26.6378 58.8024C25.8292 59.3321 25.1677 58.9752 25.1677 58.0084V16.9922Z" fill="#F5F5F5"/>
</g>
</g>
<defs>
<clipPath id="clip0_1639_2675">
<rect width="75" height="75" fill="white"/>
</clipPath>
<clipPath id="clip1_1639_2675">
<rect width="75" height="75" fill="white"/>
</clipPath>
</defs>
</svg>
