<svg width="25" height="25" viewBox="0 0 25 25" fill="none" xmlns="http://www.w3.org/2000/svg">
<g clip-path="url(#clip0_1134_2882)">
<path d="M21.305 3.65464C18.9541 1.29897 15.8266 0 12.4984 0C9.17019 0 6.04262 1.29897 3.6918 3.65464C1.34097 6.01031 0.0446777 9.14433 0.0446777 12.4794C0.0446777 15.8144 1.34097 18.9485 3.6918 21.3041C6.04262 23.6598 9.17019 24.9588 12.4984 24.9588C15.8266 24.9588 18.9541 23.6598 21.305 21.3041C23.6558 18.9485 24.9521 15.8144 24.9521 12.4794C24.9521 9.14433 23.6558 6.01031 21.305 3.65464ZM12.4984 8.39175C11.7113 8.39175 11.0735 9.03093 11.0735 9.81959C11.0735 10.1804 10.7803 10.4742 10.4202 10.4742C10.0601 10.4742 9.7669 10.1804 9.7669 9.81959C9.7669 8.30928 10.9912 7.08247 12.4984 7.08247C12.8585 7.08247 13.1517 7.37629 13.1517 7.73711C13.1517 8.09794 12.8585 8.39175 12.4984 8.39175ZM19.3965 19.3144C18.6712 16.6907 17.2978 14.4021 14.8081 13.5412C16.0478 12.768 16.8708 11.3918 16.8708 9.81959C16.8708 7.39691 14.9109 5.43814 12.4984 5.43814C10.0858 5.43814 8.12595 7.40206 8.12595 9.81959C8.12595 11.3918 8.949 12.768 10.1887 13.5412C7.699 14.4021 6.32554 16.6907 5.60023 19.3144C3.86669 17.5567 2.79159 15.1392 2.79159 12.4794C2.79159 7.1134 7.14859 2.75258 12.4984 2.75258C17.8533 2.75258 22.2052 7.11856 22.2052 12.4794C22.2052 15.1443 21.1352 17.5567 19.3965 19.3144Z" fill="#00183D"/>
</g>
<defs>
<clipPath id="clip0_1134_2882">
<rect width="25" height="25" fill="white"/>
</clipPath>
</defs>
</svg>
