<svg width="30" height="30" viewBox="0 0 30 30" fill="none" xmlns="http://www.w3.org/2000/svg">
<path d="M9.98239 27.8404C9.98239 28.0202 10.0822 28.185 10.2409 28.269C10.3995 28.3529 10.5924 28.3422 10.7406 28.2406L14.0794 25.9609L9.98245 24.0082V27.8404H9.98239Z" fill="#00183D"/>
<path d="M29.8441 2.12879C29.7524 2.04424 29.634 2 29.5144 2C29.4423 2 29.3703 2.016 29.3023 2.04945L0.479043 16.188C0.184439 16.3328 -0.00198405 16.6337 1.59334e-05 16.9628C0.00201592 17.2914 0.191591 17.5902 0.488316 17.7318L8.08476 21.3514L23.2738 8.86723L9.96687 22.2481L19.4301 26.7572C19.5464 26.8129 19.6733 26.8406 19.7989 26.8406C19.906 26.8406 20.0121 26.8211 20.1132 26.7814C20.3336 26.6942 20.5087 26.5197 20.5962 26.2992L29.9656 2.66297C30.0398 2.47697 29.9914 2.2643 29.8441 2.12879Z" fill="#00183D"/>
</svg>
