<svg width="20" height="21" viewBox="0 0 20 21" fill="none" xmlns="http://www.w3.org/2000/svg">
<g clip-path="url(#clip0_1134_2879)">
<path d="M19.1517 9.02758L17.8659 9.02343C17.6668 7.96578 17.2521 6.94131 16.6258 6.01638L17.5424 5.1039C17.8742 4.77623 17.8742 4.24119 17.5466 3.90937L16.6258 2.98445C16.2981 2.65263 15.7631 2.65263 15.4312 2.9803L14.5146 3.89278C13.5938 3.26234 12.5735 2.84343 11.5159 2.63604L11.52 1.35027C11.52 0.885732 11.1426 0.504148 10.678 0.504148L9.37151 0.5C8.90698 0.5 8.52539 0.877437 8.52539 1.34197L8.52124 2.6236C7.45944 2.81854 6.43082 3.22916 5.50175 3.85545L4.60585 2.95541C4.27819 2.6236 3.74314 2.6236 3.41133 2.95127L2.4864 3.87205C2.15459 4.19971 2.15459 4.73476 2.48225 5.06657L3.36985 5.95832C2.73111 6.88324 2.3039 7.91601 2.10067 8.98196L0.852223 8.97781C0.387685 8.97781 0.00610078 9.35525 0.00610078 9.81978L0.00195312 11.1263C0.00195312 11.5908 0.37939 11.9724 0.843928 11.9724L2.08823 11.9766C2.28317 13.0467 2.70208 14.0877 3.33252 15.0209L2.45322 15.892C2.12141 16.2196 2.12141 16.7547 2.44907 17.0865L3.36985 18.0114C3.69752 18.3432 4.23257 18.3432 4.56438 18.0156L5.44368 17.1445C6.3769 17.7833 7.40967 18.2063 8.47977 18.4054L8.47562 19.6497C8.47562 20.1143 8.85306 20.4959 9.31759 20.4959L10.6241 20.5C11.0886 20.5 11.4702 20.1226 11.4702 19.658L11.4744 18.4096C12.5403 18.2105 13.5731 17.7916 14.5022 17.1528L15.3898 18.0446C15.7174 18.3764 16.2525 18.3764 16.5843 18.0487L17.5092 17.128C17.841 16.8003 17.841 16.2652 17.5134 15.9334L16.6175 15.0334C17.2479 14.1085 17.6627 13.0798 17.8659 12.018L19.1475 12.0222C19.6121 12.0222 19.9937 11.6448 19.9937 11.1802L19.9978 9.8737C19.9978 9.40917 19.6204 9.02758 19.1517 9.02758ZM9.99781 15.9542C6.98661 15.9542 4.54364 13.5112 4.54364 10.5C4.54364 7.4888 6.98661 5.04583 9.99781 5.04583C13.009 5.04583 15.452 7.4888 15.452 10.5C15.452 13.5112 13.009 15.9542 9.99781 15.9542ZM9.99781 6.80444C7.95716 6.80444 6.30225 8.45935 6.30225 10.5C6.30225 12.5406 7.95716 14.1956 9.99781 14.1956C12.0385 14.1956 13.6934 12.5406 13.6934 10.5C13.6934 8.45935 12.0385 6.80444 9.99781 6.80444ZM9.99781 9.27644C9.32174 9.27644 8.77425 9.82393 8.77425 10.5C8.77425 10.7945 8.53784 11.0309 8.24335 11.0309C7.94887 11.0309 7.71245 10.7945 7.71245 10.5C7.71245 9.23911 8.73692 8.21464 9.99781 8.21464C10.2923 8.21464 10.5287 8.45106 10.5287 8.74554C10.5287 9.04002 10.2923 9.27644 9.99781 9.27644Z" fill="#00183D"/>
</g>
<defs>
<clipPath id="clip0_1134_2879">
<rect width="20" height="20" fill="white" transform="translate(0 0.5)"/>
</clipPath>
</defs>
</svg>
