<svg width="20" height="20" viewBox="0 0 20 20" fill="none" xmlns="http://www.w3.org/2000/svg">
<g clip-path="url(#clip0_1176_5321)">
<path d="M0.138622 7.8899C-0.0462608 8.07478 -0.0462608 8.37412 0.138622 8.55845L1.57972 10.0001L0.138622 11.4417C-0.0462608 11.6261 -0.0462608 11.9254 0.138622 12.1103C0.230536 12.2022 0.351865 12.2484 0.472646 12.2484C0.593428 12.2484 0.714756 12.2022 0.80667 12.1103L2.24831 10.6687L3.68996 12.1103C3.78238 12.2022 3.9032 12.2484 4.02398 12.2484C4.14531 12.2484 4.26609 12.2022 4.35851 12.1103C4.54285 11.9254 4.54285 11.6261 4.35851 11.4417L2.91687 10.0001L4.35851 8.55845C4.54285 8.37412 4.54285 8.07474 4.35851 7.8899C4.17363 7.70556 3.87429 7.70556 3.68996 7.8899L2.24831 9.33154L0.80667 7.8899C0.622334 7.70556 0.322958 7.70556 0.138622 7.8899Z" fill="#00183D"/>
<path d="M6.8825 3.48939V16.5108C6.8825 17.0002 7.15035 17.4472 7.58152 17.6783C7.77742 17.7828 7.99223 17.8348 8.20598 17.8348C8.46277 17.8348 8.71855 17.7602 8.9402 17.6121L14.6295 13.8192H16.7864C17.3394 13.8192 17.7937 13.3922 17.8394 12.8508H18.144C19.1676 12.8508 20 12.0184 20 10.9948V9.00541C20 7.98182 19.1676 7.14943 18.144 7.14943H17.8394C17.7937 6.60799 17.3395 6.18099 16.7864 6.18099H14.6295L8.9402 2.38814C8.53371 2.11662 8.01273 2.09142 7.58156 2.32197C7.15035 2.55303 6.8825 2.99994 6.8825 3.48939ZM7.93289 16.5108V3.48939C7.93289 3.34131 8.03371 3.27142 8.0768 3.24834C8.12039 3.22521 8.23488 3.18006 8.35777 3.26201L13.9452 6.98713V13.0131L8.35777 16.7382C8.23488 16.8201 8.12039 16.7749 8.0768 16.7519C8.03371 16.7287 7.93289 16.6589 7.93289 16.5108ZM14.9955 12.7688V7.23135H16.7864C16.7901 7.23135 16.7937 7.23451 16.7937 7.23818V12.3256V12.7621C16.7937 12.7658 16.7901 12.7689 16.7864 12.7689H14.9955V12.7688ZM17.8441 11.8004V8.19975H18.144C18.5883 8.19975 18.9496 8.56107 18.9496 9.00537V10.9947C18.9496 11.439 18.5883 11.8004 18.144 11.8004H17.8441V11.8004Z" fill="#00183D"/>
<path d="M7.93289 3.48939V16.5108C7.93289 16.6588 8.03371 16.7287 8.07679 16.7518C8.12039 16.7749 8.23488 16.8201 8.35777 16.7381L13.9452 13.013V6.98712L8.35777 3.26201C8.23488 3.18009 8.12039 3.22525 8.07679 3.24834C8.03371 3.27146 7.93289 3.3413 7.93289 3.48939Z" fill="white"/>
<path d="M14.9956 7.23138V12.7689H16.7864C16.7901 12.7689 16.7938 12.7658 16.7938 12.7621V12.3256V7.23822C16.7938 7.23455 16.7901 7.23138 16.7864 7.23138H14.9956Z" fill="#FBB786"/>
<path d="M17.8441 8.19983V11.8005H18.144C18.5883 11.8005 18.9496 11.4392 18.9496 10.9949V9.00549C18.9496 8.5612 18.5883 8.19987 18.144 8.19987H17.8441V8.19983Z" fill="white"/>
</g>
<defs>
<clipPath id="clip0_1176_5321">
<rect width="20" height="20" fill="white" transform="matrix(-1 0 0 1 20 0)"/>
</clipPath>
</defs>
</svg>
