<svg width="30" height="31" viewBox="0 0 30 31" fill="none" xmlns="http://www.w3.org/2000/svg">
<g clip-path="url(#clip0_1639_1307)">
<path d="M25.1648 3.82033C23.0346 0.220442 17.5106 -1.18206 14.8171 2.48605C14.7508 2.57674 14.7078 2.67184 14.6822 2.76797L8.88574 1.84209L9.02269 4.17543C9.17015 4.06375 9.35728 4.01016 9.54936 4.04351L27.0643 6.9586V28.1213C27.0643 28.3723 26.9482 28.5932 26.7712 28.7311L29.0002 29.5003V5.05381L25.2295 4.45174C25.3017 4.2665 25.2989 4.04632 25.1648 3.82033ZM16.2965 3.02535C18.4079 0.953594 21.9705 1.83235 23.6711 4.20326L16.2965 3.02535Z" fill="#00183D"/>
<path d="M8.13834 7.27737C8.08497 7.62226 8.30541 7.94709 8.63037 8.00387L22.9923 10.4981V27.8415C22.9923 28.1908 23.2598 28.4739 23.5887 28.4739C23.9182 28.4739 24.1851 28.1908 24.1851 27.8415V9.42352L8.82298 6.75559C8.49802 6.69638 8.19144 6.93277 8.13834 7.27737Z" fill="#00183D"/>
<path d="M25.6328 27.8173C25.6478 27.8183 25.6604 27.8268 25.6748 27.8268C25.9511 27.8268 26.1738 27.6237 26.2409 27.3529C26.2539 27.301 26.2712 27.2501 26.2712 27.1943V7.76447L10.9091 5.0972C10.6833 5.05616 10.4721 5.16297 10.3427 5.34408C10.2858 5.42409 10.2403 5.51357 10.2244 5.61879C10.2207 5.64418 10.2282 5.66751 10.2267 5.69262C10.2138 6.00837 10.4152 6.2932 10.7164 6.34538L25.0784 8.83922V27.1943C25.0784 27.5278 25.324 27.7936 25.6328 27.8173Z" fill="#00183D"/>
<path d="M16.4495 30.0219C18.9044 27.3113 21.7936 13.3628 21.9152 12.7703L22.0419 12.154L6.23717 8.44197L6.38561 9.36841C7.05443 13.5469 1.43752 22.9955 1.38115 23.0899L1 23.7273L16.1685 30.3333L16.4495 30.0219ZM2.76051 23.1269C3.96776 21.0088 7.63084 14.238 7.6289 10.0645L20.6214 13.116C19.7435 17.2448 17.5636 26.3014 15.8405 28.8223L2.76051 23.1269Z" fill="#00183D"/>
</g>
<defs>
<clipPath id="clip0_1639_1307">
<rect width="30" height="30" fill="white" transform="translate(0 0.333344)"/>
</clipPath>
</defs>
</svg>
