<?xml version="1.0" standalone="no"?>
<!DOCTYPE svg PUBLIC "-//W3C//DTD SVG 20010904//EN"
 "http://www.w3.org/TR/2001/REC-SVG-20010904/DTD/svg10.dtd">
<svg version="1.0" xmlns="http://www.w3.org/2000/svg"
 width="2043.000000pt" height="2043.000000pt" viewBox="0 0 2043.000000 2043.000000"
 preserveAspectRatio="xMidYMid meet">
<metadata>
Created by potrace 1.14, written by Peter Selinger 2001-2017
</metadata>
<g transform="translate(0.000000,2043.000000) scale(0.100000,-0.100000)"
fill="#000000" stroke="none">
<path d="M9530 19919 c-2622 -81 -5038 -624 -6692 -1504 -388 -207 -790 -464
-820 -525 -17 -33 -18 -300 -18 -5148 l0 -5112 36 -167 c294 -1367 830 -2598
1578 -3623 1348 -1846 3395 -3033 5668 -3284 362 -40 542 -50 933 -50 392 0
571 10 935 50 1443 160 2838 711 3985 1576 520 392 1021 876 1428 1380 884
1095 1506 2437 1831 3950 l36 168 0 5112 c0 4848 -1 5115 -18 5148 -12 26 -51
58 -147 123 -1544 1045 -4002 1723 -6820 1882 -597 33 -1321 43 -1915 24z
m5510 -4157 l0 -2658 -111 -73 c-130 -87 -222 -169 -250 -224 -42 -82 0 -88
121 -17 47 27 92 50 101 50 20 0 29 -45 29 -140 -1 -92 -14 -141 -47 -168
-155 -129 -210 -193 -196 -227 9 -25 76 -15 156 23 55 25 66 28 71 15 8 -19 8
-342 0 -368 -5 -19 -101 -94 -211 -166 l-52 -34 -6 -65 c-3 -36 -8 -86 -11
-112 -5 -43 -4 -48 14 -48 11 0 63 23 115 50 52 28 102 50 111 50 14 0 16 -22
16 -170 l0 -170 -42 -31 c-24 -17 -91 -55 -149 -84 -106 -54 -118 -66 -119
-118 0 -31 46 -40 109 -21 70 20 115 43 175 89 l48 36 -6 -163 c-10 -237 -8
-230 -72 -281 -30 -23 -95 -65 -145 -92 -94 -51 -124 -84 -100 -108 16 -16
123 -12 186 7 28 9 53 16 58 16 4 0 7 -70 7 -155 l0 -156 -45 -48 c-25 -27
-84 -75 -130 -107 -83 -57 -104 -85 -91 -119 8 -23 68 -19 169 11 49 14 90 24
92 22 2 -1 -6 -113 -16 -247 -16 -205 -22 -246 -37 -257 -9 -7 -61 -41 -115
-75 -128 -80 -180 -128 -175 -165 5 -43 27 -50 110 -35 40 7 88 15 106 18 l32
6 0 -169 0 -169 -44 -23 c-89 -48 -145 -127 -146 -207 0 -42 45 -150 72 -173
13 -10 24 -5 68 35 30 26 55 43 57 38 2 -6 141 -242 308 -525 295 -500 305
-516 358 -552 110 -75 183 -189 213 -331 24 -111 15 -338 -20 -492 -35 -156
-111 -381 -186 -551 l-59 -135 584 -659 583 -658 19 -79 c13 -56 18 -117 18
-213 0 -151 -17 -226 -80 -350 -192 -381 -750 -658 -1575 -780 -140 -21 -147
-23 -187 -58 -23 -21 -93 -81 -155 -136 -612 -533 -1485 -964 -2433 -1200
-1095 -273 -2329 -316 -3460 -121 -1225 211 -2236 664 -2888 1295 l-140 135
-136 1 c-157 1 -251 13 -410 55 -348 92 -677 283 -923 537 -284 293 -365 591
-233 858 29 59 128 179 585 703 l550 631 -71 143 c-144 287 -193 454 -193 667
0 96 4 154 17 200 28 107 99 237 181 331 56 62 687 940 739 1026 4 7 1 23 -9
38 -16 24 -15 26 24 70 118 134 86 301 -70 381 l-48 24 0 170 c0 94 3 170 8
170 4 0 34 -7 67 -15 33 -8 83 -14 112 -15 43 0 54 4 63 21 21 38 -16 77 -165
177 -77 51 -141 98 -142 105 -5 25 -33 404 -33 441 0 44 -10 43 128 6 104 -27
134 -22 130 22 -2 25 -14 40 -48 65 -228 168 -220 156 -220 349 l0 150 68 -17
c73 -19 159 -24 181 -10 9 6 11 18 8 33 -5 17 -34 39 -111 82 -57 32 -125 77
-151 100 l-46 41 -10 189 c-5 104 -8 190 -6 192 1 2 25 -13 53 -32 89 -65 195
-103 249 -90 19 5 25 13 25 34 0 45 -23 66 -132 120 -57 28 -120 65 -140 82
l-38 31 0 170 0 170 23 -7 c12 -4 65 -29 117 -55 53 -27 102 -49 109 -49 10 0
11 19 6 88 -10 138 -10 138 -78 184 -152 102 -192 138 -199 176 -9 47 -10 251
-2 318 l6 51 52 -28 c28 -15 73 -33 99 -40 42 -10 51 -10 65 5 16 15 16 19 -3
53 -11 21 -62 73 -113 118 -52 44 -99 89 -105 100 -12 23 -16 206 -4 247 9 32
12 32 117 -28 92 -52 127 -63 136 -40 19 51 -85 168 -243 274 l-93 63 0 2704
0 2705 4825 0 4825 0 0 -2658z"/>
<path d="M5692 18228 c-17 -17 -17 -1729 0 -1746 17 -17 9029 -17 9046 0 17
17 17 1729 0 1746 -17 17 -9029 17 -9046 0z m5903 -242 c43 -43 42 -173 -2
-190 -25 -10 -37 9 -43 67 -5 47 -7 52 -32 55 -45 5 -62 -41 -62 -168 1 -145
5 -160 50 -160 41 0 51 -17 37 -63 -7 -26 -14 -33 -41 -35 l-32 -3 0 -289 c0
-270 1 -290 19 -302 28 -20 35 -55 17 -83 -14 -21 -24 -25 -69 -25 -29 0 -58
5 -65 12 -19 19 -14 71 8 91 19 16 20 29 20 306 0 280 -1 289 -20 294 -16 4
-20 14 -20 51 0 38 3 46 18 46 17 0 20 12 25 128 7 156 25 219 72 261 44 38
86 41 120 7z m-4530 -6 c23 -9 55 -60 55 -89 0 -6 -13 -26 -30 -44 l-30 -35
-1 -493 c-1 -272 -4 -505 -8 -519 -4 -14 -13 -25 -21 -25 -16 0 -46 71 -240
562 -74 189 -138 343 -142 343 -5 0 -8 -166 -8 -369 l0 -369 34 -41 c31 -37
34 -45 25 -74 -5 -17 -9 -33 -9 -34 0 -1 -14 -10 -31 -19 -94 -48 -186 61
-109 129 l30 27 0 453 0 453 -30 22 c-21 16 -30 31 -30 51 0 40 20 53 77 49
l48 -3 170 -429 170 -429 3 358 2 359 -30 31 c-34 35 -37 53 -15 95 25 48 65
61 120 40z m7478 -2 c55 -29 62 -83 17 -135 l-30 -34 0 -514 c0 -519 -2 -548
-35 -514 -7 8 -88 203 -179 434 -92 231 -173 434 -181 450 -12 26 -14 -15 -14
-351 l-1 -380 30 -29 c32 -30 37 -58 19 -99 -29 -62 -138 -56 -165 9 -19 47
-19 50 21 86 l35 32 0 447 0 447 -35 32 c-28 25 -34 37 -29 54 11 38 25 47 74
47 45 0 48 -2 63 -37 9 -21 84 -209 168 -418 83 -209 155 -387 160 -395 5 -9
9 133 9 343 l0 357 -30 32 c-37 39 -39 76 -4 117 28 34 67 41 107 19z m-5133
-23 c63 -33 102 -107 104 -200 1 -63 -16 -120 -40 -129 -31 -12 -42 5 -49 77
-3 40 -15 91 -25 114 -15 35 -25 44 -60 53 -83 22 -150 -43 -150 -147 0 -95
34 -145 196 -294 104 -94 144 -191 144 -345 0 -144 -52 -259 -134 -298 -42
-20 -115 -21 -160 -2 -47 20 -102 81 -120 134 -23 65 -21 173 2 203 40 49 82
-15 82 -125 0 -61 2 -65 35 -95 30 -26 44 -31 86 -31 44 0 55 4 84 33 41 41
59 103 52 180 -7 80 -43 135 -150 227 -148 128 -190 210 -191 370 0 194 88
309 224 293 25 -3 56 -11 70 -18z m3498 -6 c53 -26 121 -113 151 -193 41 -109
54 -218 48 -401 -4 -137 -10 -188 -30 -266 -55 -212 -144 -319 -265 -319 -28
0 -62 4 -77 10 -49 19 -121 97 -153 167 -51 111 -63 174 -69 343 -8 241 26
418 105 550 53 89 113 130 190 130 36 0 71 -7 100 -21z m-6895 -1 c9 -7 19
-25 22 -39 5 -22 1 -30 -25 -49 l-31 -22 3 -396 3 -397 31 -55 c43 -77 84
-103 152 -98 43 4 59 11 89 39 19 19 45 54 57 79 20 43 21 62 24 436 l3 392
-30 22 c-32 22 -38 47 -21 81 9 16 22 19 77 19 75 0 103 -16 103 -59 0 -19 -9
-32 -29 -44 l-30 -17 -3 -413 c-3 -404 -4 -413 -26 -470 -63 -156 -186 -224
-307 -168 -56 25 -119 100 -146 174 -22 60 -23 75 -27 470 l-3 409 -30 16
c-33 19 -39 60 -13 86 19 20 132 22 157 4z m1321 -4 c17 -17 22 -84 7 -84 -5
0 -17 -7 -25 -16 -14 -14 -16 -70 -16 -465 0 -452 3 -489 35 -489 18 0 20 -51
5 -81 -9 -16 -22 -19 -72 -19 -73 0 -98 17 -98 67 0 18 4 33 9 33 5 0 17 7 25
16 14 14 16 70 16 465 0 452 -3 489 -35 489 -19 0 -21 70 -3 88 18 18 133 15
152 -4z m220 -6 c23 -32 20 -54 -10 -75 l-26 -19 30 -155 c16 -85 56 -291 88
-458 40 -210 61 -296 66 -280 4 13 23 116 43 229 20 113 54 299 75 413 22 115
40 219 40 232 0 16 -9 28 -27 37 -22 11 -28 20 -26 43 4 44 27 56 107 53 50
-2 72 -7 79 -19 16 -25 0 -62 -36 -84 -36 -23 -20 45 -160 -686 -36 -185 -71
-349 -78 -365 -22 -45 -46 -43 -68 8 -10 24 -60 259 -111 523 l-93 480 -43 41
c-47 44 -53 63 -28 88 11 12 35 16 89 16 65 0 76 -3 89 -22z m905 -23 c16 -50
18 -193 2 -223 -30 -56 -61 -1 -61 109 l0 69 -125 0 -125 0 0 -210 0 -210 80
0 c56 0 82 4 84 13 2 6 9 32 16 56 11 41 13 43 28 27 35 -35 25 -325 -11 -313
-11 3 -18 23 -32 90 -5 27 -6 27 -85 27 l-80 0 2 -227 3 -228 112 -3 c128 -3
119 -10 147 100 26 96 57 116 69 43 13 -81 -29 -221 -74 -246 -15 -8 -71 -9
-190 -4 -156 7 -171 9 -184 29 -23 31 -18 62 13 84 l27 20 0 457 0 457 -27 22
c-29 23 -35 54 -18 87 10 18 21 19 213 17 l202 -3 14 -40z m393 35 c53 -15 92
-51 119 -112 21 -47 24 -68 24 -183 0 -166 -16 -217 -91 -292 l-52 -52 39
-126 c42 -137 84 -247 107 -283 8 -13 28 -26 44 -29 24 -5 28 -10 28 -39 0
-49 -36 -71 -90 -55 -33 10 -44 20 -64 59 -26 51 -72 207 -109 367 l-23 100
-52 3 -52 3 0 -199 0 -198 30 -22 c34 -25 39 -61 14 -86 -11 -12 -36 -16 -90
-16 -69 0 -75 2 -85 24 -15 33 -5 69 23 81 l23 10 3 467 2 466 -30 22 c-35 25
-38 52 -10 80 18 18 33 20 138 20 64 0 134 -5 154 -10z m902 -12 c24 -33 20
-67 -8 -79 -13 -6 -27 -21 -30 -33 -3 -11 -6 -218 -6 -459 l0 -439 30 -28 c34
-31 37 -55 14 -88 -21 -31 -124 -32 -154 -2 -28 28 -25 64 8 88 l27 20 0 457
0 457 -27 22 c-18 14 -28 31 -28 48 0 44 24 58 95 58 55 0 66 -3 79 -22z m476
12 c0 -7 6 -7 19 0 11 5 45 10 76 10 46 0 60 -4 80 -25 33 -32 33 -72 0 -87
-14 -6 -25 -15 -25 -21 0 -11 130 -418 138 -431 5 -8 152 414 152 435 0 4 -11
10 -25 13 -34 9 -34 57 0 91 29 30 98 35 127 8 29 -26 23 -77 -11 -106 -25
-21 -44 -66 -125 -314 l-96 -288 0 -154 0 -153 36 -33 c29 -27 34 -37 28 -59
-8 -35 -31 -46 -96 -46 -66 0 -98 20 -98 60 0 22 7 32 28 42 l27 13 3 174 2
174 -90 280 c-50 154 -93 284 -96 289 -14 23 -24 2 -24 -51 0 -68 -6 -91 -25
-91 -8 0 -18 22 -25 58 -25 126 -19 117 -88 120 l-62 3 2 -478 3 -478 28 -13
c20 -10 27 -20 27 -42 0 -45 -23 -60 -94 -60 -67 0 -86 11 -101 58 -5 18 -1
25 24 40 20 11 33 27 36 47 3 17 4 230 3 475 l-3 445 -60 0 -59 0 -12 -45 c-6
-25 -15 -63 -20 -85 -6 -25 -15 -40 -24 -40 -24 0 -22 211 3 248 l17 27 200 0
c131 0 200 -4 200 -10z m1714 -12 c23 -33 20 -59 -11 -84 l-28 -22 0 -457 0
-457 28 -22 c31 -25 34 -51 11 -84 -12 -18 -25 -22 -70 -22 -69 0 -90 11 -99
52 -6 27 -3 35 21 55 l29 23 0 456 0 456 -27 22 c-32 25 -35 51 -12 84 13 19
24 22 79 22 55 0 66 -3 79 -22z m268 5 c27 -24 22 -61 -12 -93 l-30 -28 2
-464 3 -463 65 -3 c36 -1 85 3 110 11 48 14 46 10 75 120 10 36 21 57 30 57
51 0 19 -241 -38 -288 -24 -20 -351 -6 -373 15 -22 23 -17 64 14 96 l27 28 0
444 0 444 -27 28 c-33 34 -38 86 -10 102 29 17 143 13 164 -6z m1288 -5 c65
-34 97 -81 116 -168 18 -86 14 -205 -10 -286 -19 -60 -67 -130 -101 -146 -14
-6 -25 -17 -25 -24 0 -27 92 -309 118 -363 20 -40 37 -60 60 -71 36 -17 49
-48 33 -79 -25 -45 -103 -34 -139 19 -28 41 -69 173 -112 354 l-32 137 -52 -3
-51 -3 -3 -189 -2 -188 35 -34 c29 -27 35 -39 29 -56 -12 -43 -24 -48 -98 -48
-81 0 -96 9 -96 57 0 26 5 36 24 42 13 5 26 17 30 26 3 9 6 219 6 466 0 436
-1 450 -20 469 -11 11 -24 20 -30 20 -5 0 -10 13 -10 29 0 51 28 61 165 61
106 0 126 -3 165 -22z m404 9 c20 -14 26 -79 7 -85 -41 -14 -41 -13 -41 -487
0 -396 2 -456 15 -467 42 -35 45 -40 39 -66 -11 -45 -22 -52 -90 -52 -54 0
-65 3 -78 22 -23 33 -20 65 9 84 l25 16 0 464 0 464 -25 16 c-29 19 -34 64 -9
88 19 20 122 22 148 3z m-2719 -365 c39 -24 80 -100 102 -188 23 -95 23 -315
0 -404 -40 -150 -95 -220 -174 -220 -39 0 -50 5 -83 38 -66 67 -100 195 -100
382 0 177 40 311 111 375 45 41 95 47 144 17z"/>
<path d="M12733 17850 c-88 -53 -144 -225 -146 -450 -1 -191 29 -331 95 -433
39 -61 80 -87 136 -87 84 0 163 108 199 272 21 100 21 327 -2 433 -18 88 -64
197 -98 233 -50 54 -126 68 -184 32z"/>
<path d="M8717 17863 c-31 -8 -37 -48 -37 -254 l0 -199 70 0 c84 0 114 12 142
59 31 49 38 205 14 278 -30 91 -106 137 -189 116z"/>
<path d="M13336 17857 c-26 -19 -34 -87 -35 -284 l-1 -163 79 0 c64 0 83 4
105 21 49 39 61 74 61 189 0 121 -20 181 -73 218 -40 29 -110 38 -136 19z"/>
<path d="M11084 17509 c-108 -53 -113 -510 -6 -631 24 -28 76 -23 101 9 41 51
56 127 56 283 0 124 -4 156 -23 219 -15 46 -34 85 -52 103 -30 30 -43 33 -76
17z"/>
<path d="M7308 15345 c833 -454 1518 -825 1523 -825 5 0 9 4 9 10 0 5 17 26
38 46 36 35 36 37 17 50 -11 7 -567 357 -1235 778 l-1215 766 -325 0 -325 0
1513 -825z"/>
<path d="M7065 16155 c11 -8 457 -334 990 -723 l970 -709 27 23 c15 12 33 24
40 27 18 7 37 -11 -790 731 l-743 666 -257 -1 c-227 0 -255 -2 -237 -14z"/>
<path d="M7970 16157 c8 -8 308 -274 665 -592 358 -318 665 -592 684 -609 23
-21 35 -27 38 -18 6 16 56 42 83 42 12 0 20 4 18 9 -1 5 -241 272 -533 595
l-530 586 -220 0 c-184 0 -217 -2 -205 -13z"/>
<path d="M8927 16158 c17 -28 757 -1064 769 -1077 9 -10 17 -11 26 -4 7 6 32
15 55 20 l42 8 -271 533 -271 532 -179 0 c-141 0 -178 -3 -171 -12z"/>
<path d="M9692 16158 c3 -7 83 -241 178 -521 164 -478 175 -507 194 -500 12 4
38 7 59 6 36 -1 38 0 33 25 -3 15 -39 236 -81 492 -41 256 -77 475 -80 488 -5
22 -8 22 -156 22 -117 0 -150 -3 -147 -12z"/>
<path d="M10435 16148 c-3 -13 -39 -232 -80 -488 -41 -256 -78 -477 -81 -491
-5 -26 -3 -27 38 -26 24 1 50 -2 59 -6 13 -7 43 71 189 500 95 279 175 514
178 521 3 9 -30 12 -147 12 -148 0 -151 0 -156 -22z"/>
<path d="M10881 15638 l-270 -533 41 -7 c22 -4 47 -13 55 -19 11 -10 17 -9 27
2 12 13 752 1049 769 1077 7 9 -30 12 -172 12 l-180 0 -270 -532z"/>
<path d="M11505 15584 c-291 -323 -531 -590 -533 -595 -2 -5 6 -9 18 -9 27 0
77 -26 83 -42 3 -9 15 -3 38 18 19 17 327 291 684 609 358 318 657 584 665
592 12 11 -21 13 -205 13 l-220 0 -530 -586z"/>
<path d="M12128 15504 c-409 -367 -756 -680 -773 -696 -20 -21 -26 -32 -17
-35 7 -3 25 -15 40 -27 l27 -22 970 708 c534 389 979 715 990 723 18 12 -11
14 -237 14 l-257 1 -743 -666z"/>
<path d="M12756 15395 c-676 -426 -1231 -777 -1234 -780 -3 -3 10 -20 30 -38
19 -17 37 -39 40 -47 4 -13 11 -12 44 6 75 42 2939 1601 2969 1617 28 15 9 16
-295 16 l-325 1 -1229 -775z"/>
<path d="M5680 15541 c0 -111 2 -201 4 -201 2 0 680 -232 1506 -515 826 -283
1506 -512 1511 -509 5 3 9 11 9 18 0 7 10 25 21 40 12 15 19 29 17 32 -4 3
-2986 1303 -3055 1331 -10 4 -13 -39 -13 -196z"/>
<path d="M13215 15074 c-841 -366 -1531 -667 -1534 -669 -2 -3 3 -13 12 -22 8
-10 20 -31 26 -47 6 -15 17 -26 24 -24 6 3 686 236 1510 518 l1497 513 0 198
c0 110 -1 199 -2 199 -2 0 -691 -300 -1533 -666z"/>
<path d="M5682 14833 l3 -187 1463 -292 c945 -188 1465 -287 1467 -280 2 6 5
22 8 36 2 14 6 31 8 38 3 10 -381 127 -1461 443 -806 236 -1471 429 -1478 429
-10 0 -12 -41 -10 -187z"/>
<path d="M13255 14590 c-1075 -315 -1459 -432 -1456 -442 2 -7 7 -29 10 -48 6
-30 10 -35 31 -32 14 2 673 133 1465 290 l1440 287 3 188 c2 174 1 187 -15
186 -10 0 -675 -193 -1478 -429z"/>
<path d="M5685 14212 c-3 -3 -5 -88 -5 -189 l0 -183 1454 0 1454 0 -2 57 -2
58 -1399 126 c-770 70 -1421 129 -1447 132 -26 2 -50 2 -53 -1z"/>
<path d="M13284 14086 l-1442 -131 1 -57 0 -58 1454 0 1453 0 -2 187 c-2 114
-7 187 -13 188 -5 2 -659 -56 -1451 -129z"/>
<path d="M5660 13455 l0 -194 102 -113 c166 -185 250 -308 295 -432 8 -23 36
-236 63 -474 150 -1325 268 -1998 446 -2546 255 -783 641 -1314 1312 -1798
l83 -60 165 42 c191 47 293 83 417 146 64 32 100 44 132 44 136 0 339 -186
368 -338 6 -28 -3 -46 -75 -155 -91 -137 -189 -332 -243 -482 l-37 -100 40
-35 c21 -19 79 -71 128 -114 90 -80 230 -178 317 -222 l48 -25 19 23 c35 43
140 233 194 353 113 251 182 477 193 633 l6 82 -115 0 c-117 0 -223 14 -245
32 -22 17 -15 33 45 115 180 241 650 680 817 763 91 45 221 63 370 52 l120 -9
83 41 c77 36 91 40 165 40 68 0 92 -4 140 -26 71 -33 174 -130 211 -198 l27
-49 -23 -5 c-13 -3 -88 -8 -168 -11 l-146 -7 -54 -64 c-111 -129 -171 -278
-189 -469 l-10 -97 73 -122 c87 -143 130 -228 185 -360 88 -212 171 -515 202
-739 7 -48 15 -87 18 -87 13 0 181 116 247 170 79 65 169 174 220 268 20 37
50 89 66 115 16 26 25 53 22 60 -14 23 -132 173 -203 257 -90 106 -149 195
-157 237 -5 25 4 50 42 124 69 133 148 211 278 274 54 27 111 48 125 48 14 0
127 -17 251 -37 124 -19 280 -41 348 -47 l122 -11 102 63 c253 156 562 423
725 624 252 311 435 702 567 1205 77 293 124 537 251 1280 151 890 257 1436
306 1584 50 151 163 353 280 503 l49 63 0 190 0 190 -4560 0 -4560 0 0 -195z
m4030 -430 c124 -28 230 -65 323 -112 l87 -45 0 -1433 0 -1433 31 -11 c41 -14
101 -14 134 1 l25 11 0 1429 c0 1134 3 1429 13 1432 68 20 458 119 513 130
349 73 608 32 1114 -178 151 -62 263 -80 510 -80 228 0 304 10 397 55 l42 20
160 -123 160 -123 0 -1467 1 -1468 -1174 0 -1173 0 -122 -150 -122 -150 -377
0 -377 1 -91 147 -91 147 -1221 3 -1222 2 0 1494 0 1494 183 100 c160 89 183
99 189 82 10 -26 149 -45 338 -44 231 0 370 32 715 164 171 65 257 88 445 115
130 19 486 13 590 -10z m-2650 -2080 l0 -1575 1315 0 1315 0 57 -115 58 -115
440 0 440 0 85 113 85 112 1288 3 1287 2 0 1575 0 1575 95 0 95 0 -2 -1652 -3
-1653 -1289 -5 -1288 -5 -62 -107 -61 -107 -660 -1 -661 0 -54 110 -54 110
-1308 0 -1308 0 0 1655 0 1655 95 0 95 0 0 -1575z"/>
<path d="M14027 7782 c-15 -16 -10 -19 69 -48 46 -17 84 -30 84 -28 0 6 -119
94 -128 94 -5 0 -16 -8 -25 -18z"/>
<path d="M14040 7301 c-49 -15 -87 -40 -129 -86 -74 -80 -91 -156 -46 -200 30
-31 86 -33 163 -6 28 10 52 16 52 14 0 -2 -45 -93 -100 -203 l-100 -200 -164
0 c-220 0 -227 -13 -55 -101 55 -28 99 -57 99 -65 0 -18 -231 -444 -241 -444
-4 0 -60 27 -123 60 -120 62 -172 74 -208 46 -34 -25 -22 -61 45 -136 34 -39
75 -89 92 -111 l29 -40 -174 -174 c-96 -96 -177 -175 -180 -175 -3 0 -34 25
-70 56 -124 106 -182 145 -209 142 -35 -4 -39 -38 -10 -80 12 -18 55 -67 95
-108 l73 -75 -174 -113 c-96 -62 -181 -115 -188 -118 -9 -3 -55 31 -117 85
-104 92 -135 107 -160 76 -32 -39 -15 -194 32 -294 l24 -49 -155 -101 -156
-101 -24 30 c-13 16 -58 87 -101 157 -43 71 -84 129 -92 131 -32 6 -43 -55
-43 -249 l0 -186 -235 -78 c-129 -43 -240 -80 -247 -82 -7 -3 -24 50 -48 152
-20 86 -40 155 -44 153 -4 -2 -85 -88 -181 -193 -95 -104 -186 -204 -202 -221
l-29 -31 427 -502 c398 -468 429 -502 453 -496 118 29 555 219 811 352 361
188 904 517 896 543 -2 8 -14 42 -26 75 -71 194 -67 444 10 719 85 301 230
605 663 1386 99 179 233 423 298 544 116 216 117 218 105 255 l-13 36 -74 6
c-104 9 -219 9 -249 0z"/>
<path d="M15175 7282 c-138 -68 -303 -256 -390 -444 -22 -48 -43 -87 -47 -88
-4 0 -50 63 -103 140 -52 77 -98 140 -100 140 -3 0 -26 -42 -51 -92 -70 -140
-119 -223 -334 -568 -240 -385 -322 -524 -412 -705 -191 -381 -265 -692 -227
-962 10 -71 58 -241 77 -270 5 -8 53 41 138 140 197 228 479 521 785 816 525
506 583 568 697 739 287 428 352 756 207 1048 -49 100 -75 124 -139 131 -31 3
-56 -3 -101 -25z"/>
<path d="M5159 7241 c-108 -70 -159 -163 -167 -305 -11 -229 102 -536 334
-902 56 -89 75 -109 157 -172 166 -126 297 -276 547 -627 306 -428 440 -583
645 -747 70 -56 227 -158 243 -158 10 0 37 86 51 164 15 84 14 229 -4 327 -46
267 -162 536 -475 1109 -296 540 -375 700 -475 964 -51 134 -53 138 -68 115
-8 -13 -49 -87 -92 -164 -42 -77 -78 -141 -79 -142 -2 -2 -29 39 -61 90 -149
238 -294 411 -382 456 -60 30 -119 28 -174 -8z"/>
<path d="M6165 7232 c-38 -9 -37 -14 21 -185 127 -369 223 -570 517 -1079 161
-278 234 -439 300 -658 79 -260 137 -671 137 -974 0 -56 3 -132 7 -169 l6 -68
126 -63 c320 -161 799 -372 1099 -485 154 -58 438 -156 474 -163 11 -2 136
138 407 457 215 253 390 462 389 466 -6 14 -400 439 -407 439 -5 0 -20 -53
-35 -117 -15 -65 -32 -134 -37 -155 l-9 -36 -248 82 c-235 79 -247 84 -245
107 9 93 3 329 -9 364 -26 77 -33 71 -179 -169 -30 -48 -59 -90 -65 -93 -6 -2
-80 40 -163 94 -112 73 -149 102 -144 113 52 118 76 272 51 320 -23 43 -48 36
-132 -37 -43 -37 -93 -80 -110 -95 l-32 -27 -187 121 -188 121 54 48 c59 53
131 142 141 176 6 18 2 25 -17 34 -32 15 -42 9 -181 -105 l-113 -94 -176 177
c-157 157 -175 178 -165 196 6 11 45 58 85 104 92 103 103 124 79 150 -42 46
-107 32 -256 -53 -44 -26 -84 -44 -89 -42 -17 11 -242 438 -237 451 2 7 42 32
88 54 107 53 133 73 124 96 -6 16 -19 16 -150 10 -79 -4 -153 -4 -165 0 -16 5
-48 59 -121 206 -55 109 -98 199 -96 199 2 0 23 -7 47 -16 24 -8 68 -16 97
-17 46 -2 57 2 73 22 57 70 -22 219 -144 271 -55 24 -166 35 -222 22z"/>
<path d="M15216 5805 c-221 -126 -421 -320 -746 -725 -403 -503 -557 -661
-875 -900 -651 -489 -1328 -859 -1920 -1050 -623 -201 -1267 -257 -1940 -169
-822 108 -1777 461 -2820 1043 -320 179 -459 281 -651 478 -166 170 -242 267
-464 593 -158 232 -211 304 -284 385 -118 130 -225 202 -357 241 l-76 22 -35
-39 c-19 -21 -198 -225 -398 -453 l-362 -414 51 -14 c64 -16 100 -34 176 -88
117 -83 213 -199 467 -563 273 -392 376 -513 578 -682 1449 -1208 3585 -1786
5570 -1504 1233 174 2368 656 3354 1423 380 296 709 610 937 896 174 219 270
317 382 389 96 63 142 85 275 130 l94 32 -432 507 c-238 279 -435 507 -439
507 -3 0 -42 -20 -85 -45z m-9880 -818 c136 -139 175 -203 182 -297 8 -104
-59 -210 -132 -210 -40 0 -114 46 -183 113 -29 28 -55 49 -57 46 -10 -9 -76
-191 -76 -208 0 -9 7 -26 15 -37 19 -25 19 -54 -1 -54 -39 0 -154 123 -154
164 0 18 10 18 51 1 14 -5 34 37 118 248 55 139 101 260 101 268 0 9 -7 24
-15 35 -22 29 -19 54 8 54 15 0 59 -37 143 -123z m9748 -231 c207 -243 192
-228 227 -221 26 6 29 4 29 -20 0 -17 -16 -43 -46 -75 -63 -67 -107 -68 -81
-1 11 30 10 33 -41 83 l-52 53 -88 -88 -89 -88 13 -87 c8 -48 14 -90 14 -95 0
-4 11 -5 25 -1 20 5 25 2 25 -13 0 -26 -37 -81 -73 -107 -40 -29 -55 -11 -37
45 13 38 10 72 -27 368 -23 179 -45 338 -48 352 -8 30 35 89 65 89 11 0 81
-74 184 -194z m-9338 -158 c177 -134 273 -241 294 -327 22 -92 -19 -208 -85
-240 -24 -11 -37 -12 -73 -2 -25 6 -46 10 -47 9 -5 -7 24 -279 35 -316 6 -23
22 -54 35 -70 42 -50 27 -88 -23 -57 -77 49 -92 92 -102 309 l-10 181 -36 33
c-21 17 -41 32 -45 32 -4 0 -24 -51 -45 -114 l-37 -113 22 -32 c24 -33 22 -61
-3 -61 -21 0 -135 97 -148 126 -15 32 1 51 30 35 15 -8 22 -7 30 2 5 6 49 131
97 275 l87 264 -22 30 c-38 52 -8 77 46 36z m8807 -10 c2 -7 -5 -31 -16 -54
l-20 -41 97 -289 c53 -159 96 -301 96 -317 0 -22 -5 -27 -23 -27 -13 0 -130
60 -260 134 -130 74 -237 129 -237 122 0 -6 32 -107 71 -223 l71 -213 34 0
c28 0 34 -4 34 -20 0 -35 -29 -79 -72 -110 -72 -52 -108 -31 -71 42 l21 40
-88 261 -87 262 -37 -3 c-30 -2 -36 0 -36 16 0 24 31 64 70 92 l30 21 232
-130 c127 -72 233 -129 235 -128 1 2 -28 95 -65 208 l-69 204 -36 3 c-42 4
-48 22 -23 71 35 66 135 119 149 79z m-685 -554 c2 -11 -4 -27 -13 -34 -8 -7
-15 -23 -15 -36 0 -30 139 -525 152 -541 6 -8 20 -10 34 -7 20 5 24 2 24 -18
0 -38 -93 -118 -137 -118 -33 0 -36 15 -13 57 l20 38 -77 270 -78 270 -30 0
c-21 0 -31 5 -33 18 -4 22 18 48 78 93 50 37 83 40 88 8z m-7359 -26 c71 -34
146 -116 188 -204 33 -70 37 -86 41 -185 4 -89 1 -119 -16 -176 -35 -112 -91
-189 -167 -224 -57 -27 -103 -24 -173 12 -234 117 -304 456 -143 698 64 97
169 128 270 79z m6972 -284 c47 -42 68 -175 40 -257 -7 -21 -29 -59 -48 -84
l-35 -46 73 -73 c91 -92 127 -113 169 -97 31 12 31 11 28 -20 -6 -61 -98 -97
-154 -61 -22 15 -114 123 -158 185 l-16 24 -45 -25 c-28 -15 -45 -32 -45 -43
0 -10 12 -65 26 -122 l26 -105 34 0 c37 0 46 -21 22 -53 -18 -22 -128 -87
-149 -87 -28 0 -30 28 -3 60 l26 30 -69 288 -69 287 -32 -3 c-26 -2 -32 2 -32
18 0 29 32 58 135 120 146 88 228 107 276 64z m-6372 -97 c137 -74 194 -127
216 -199 18 -61 18 -80 5 -130 -14 -50 -54 -95 -90 -103 l-30 -7 20 -28 c77
-108 80 -250 8 -327 -50 -53 -120 -39 -293 57 -128 72 -145 85 -145 117 0 19
5 23 30 23 22 0 31 5 35 23 35 146 115 522 115 539 0 12 -9 32 -21 44 -17 18
-19 26 -9 44 14 26 12 27 159 -53z m5851 -193 c22 -60 24 -82 11 -103 -12 -19
-28 -7 -51 40 -24 45 -33 47 -96 17 -54 -27 -56 16 18 -365 l50 -263 34 0 c65
0 35 -54 -53 -99 -81 -41 -131 -16 -79 38 l27 28 -56 294 c-31 162 -58 296
-60 298 -7 6 -94 -31 -106 -45 -6 -7 -13 -41 -16 -74 -9 -94 -39 -94 -54 0 -5
34 -4 64 4 88 11 34 21 40 195 123 101 48 190 85 198 82 7 -3 22 -29 34 -59z
m-5334 -70 c63 -26 94 -53 94 -80 0 -19 -5 -24 -24 -24 -14 0 -28 -5 -31 -10
-8 -12 -105 -535 -105 -564 0 -11 10 -30 22 -43 18 -19 20 -27 11 -41 -6 -9
-20 -16 -32 -15 -36 4 -112 45 -127 68 -18 28 -8 58 16 50 10 -3 22 0 27 7 4
7 31 139 60 293 l52 280 -19 27 c-21 28 -25 50 -13 61 10 11 27 8 69 -9z m462
-189 c97 -36 183 -73 190 -82 15 -21 16 -137 1 -164 -8 -16 -13 -18 -25 -8 -8
6 -14 23 -14 38 0 14 -5 42 -10 62 -9 32 -17 39 -65 56 l-54 20 -5 -26 c-3
-14 -24 -154 -47 -310 l-42 -283 28 -22 c60 -48 -1 -74 -87 -37 -78 33 -104
91 -41 91 l28 0 46 306 45 307 -35 14 c-64 27 -81 23 -111 -27 -14 -25 -31
-43 -36 -40 -5 3 -9 30 -9 60 0 60 23 110 51 110 8 0 94 -29 192 -65z m4283
-3 c57 -51 48 -154 -15 -164 -14 -2 -22 7 -32 44 -15 50 -53 88 -87 88 -35 0
-106 -40 -137 -78 -95 -114 -92 -381 6 -509 30 -39 93 -72 140 -73 43 0 128
45 158 84 14 18 35 54 47 80 26 52 49 61 49 19 0 -35 -48 -138 -85 -181 -62
-74 -169 -107 -262 -81 -215 60 -272 506 -90 697 70 74 129 101 219 102 49 0
62 -4 89 -28z m-3711 -182 c24 -13 23 -9 69 -360 52 -389 48 -368 79 -397 21
-19 24 -27 15 -41 -15 -23 -89 -19 -123 6 -33 25 -39 62 -11 62 13 0 21 6 21
18 0 18 -22 175 -25 180 -4 5 -185 52 -200 52 -8 0 -25 -34 -42 -86 -26 -80
-26 -86 -10 -95 21 -12 22 -48 2 -55 -38 -15 -125 24 -125 56 0 5 13 16 29 24
26 14 40 45 135 301 58 157 106 296 106 309 0 12 3 26 7 29 10 10 52 8 73 -3z
m2999 -36 c93 -47 148 -153 158 -305 13 -203 -67 -389 -192 -448 -158 -74
-313 -1 -367 173 -29 93 -31 251 -3 344 61 210 243 316 404 236z m-2368 -86
c94 -28 152 -118 126 -197 -10 -30 -17 -37 -43 -39 l-31 -3 -7 62 c-6 49 -13
68 -35 90 -47 47 -130 51 -170 8 -51 -55 -22 -134 79 -217 174 -143 200 -181
200 -297 0 -86 -26 -139 -85 -172 -100 -57 -279 1 -321 103 -29 68 -13 144 30
144 34 0 49 -24 52 -86 3 -59 13 -78 53 -98 108 -55 209 -3 199 102 -6 64 -27
93 -120 163 -142 109 -188 174 -188 269 0 140 113 213 261 168z m1614 -65 c56
-29 118 -99 141 -159 15 -39 19 -75 19 -179 0 -113 -3 -138 -24 -195 -31 -81
-123 -179 -186 -197 -51 -15 -194 -33 -262 -33 -44 0 -53 3 -58 21 -5 16 0 27
20 43 l27 22 -13 284 c-6 157 -16 295 -20 308 -5 13 -17 22 -29 22 -24 0 -28
41 -6 59 22 18 122 30 241 27 90 -1 117 -6 150 -23z m-867 -462 c8 -5 12 -22
10 -42 -4 -41 -13 -44 -115 -34 -66 6 -74 9 -79 31 -11 42 10 54 95 54 42 0
82 -4 89 -9z"/>
<path d="M5257 4918 c-8 -18 -32 -75 -52 -126 l-38 -93 29 -30 c41 -43 114
-95 145 -102 84 -20 130 132 74 243 -29 57 -104 140 -127 140 -9 0 -23 -15
-31 -32z"/>
<path d="M14880 4868 c0 -12 51 -365 56 -387 5 -23 10 -20 80 50 41 40 74 76
74 79 0 3 -45 61 -101 130 -116 143 -109 135 -109 128z"/>
<path d="M5776 4428 c-8 -18 -27 -73 -42 -122 l-29 -88 50 -44 c95 -85 153
-96 187 -37 50 85 25 195 -63 278 -58 54 -85 58 -103 13z"/>
<path d="M6354 3938 c-39 -28 -69 -71 -97 -139 -32 -81 -31 -260 2 -343 48
-120 154 -193 240 -167 79 23 130 98 157 231 26 129 5 245 -63 343 -62 89
-171 123 -239 75z"/>
<path d="M13273 3630 c-32 -18 -55 -39 -58 -53 -5 -19 15 -122 46 -239 l9 -37
60 36 c114 67 155 140 131 231 -27 98 -89 118 -188 62z"/>
<path d="M7056 3543 c-9 -24 -46 -190 -46 -207 0 -18 113 -83 158 -92 49 -10
78 15 93 80 10 48 10 61 -5 101 -34 87 -179 173 -200 118z"/>
<path d="M6987 3248 c-2 -7 -15 -66 -28 -130 -29 -146 -26 -159 56 -204 83
-45 123 -51 157 -24 49 38 63 143 28 216 -20 41 -90 98 -167 138 -38 19 -40
19 -46 4z"/>
<path d="M8574 2790 c-69 -197 -77 -221 -71 -226 6 -6 146 -44 162 -44 9 0
-22 321 -38 400 -1 8 -26 -50 -53 -130z"/>
<path d="M11455 2896 c-141 -62 -196 -316 -109 -506 43 -94 100 -140 174 -140
57 0 99 20 141 67 59 65 83 140 82 258 0 152 -48 266 -132 313 -44 25 -110 28
-156 8z"/>
<path d="M10670 2763 c-14 -2 -29 -8 -34 -13 -8 -8 9 -528 20 -597 5 -33 6
-33 60 -33 93 0 143 18 195 70 65 65 84 125 83 260 -2 212 -71 304 -236 315
-35 2 -74 1 -88 -2z"/>
<path d="M16145 4642 c-136 -47 -327 -230 -692 -662 -132 -157 -287 -333 -343
-392 -60 -64 -99 -112 -94 -119 5 -8 35 -10 98 -7 247 14 741 252 1034 500 86
74 189 193 222 259 33 63 53 156 45 208 -13 87 -77 184 -140 212 -49 23 -67
23 -130 1z"/>
<path d="M4108 4546 c-88 -61 -117 -174 -78 -297 107 -332 638 -739 1100 -843
79 -18 240 -32 240 -21 0 5 -44 54 -98 109 -54 56 -199 220 -322 366 -281 330
-414 475 -517 565 -162 139 -251 172 -325 121z"/>
</g>
</svg>
