<?xml version="1.0" standalone="no"?>
<!DOCTYPE svg PUBLIC "-//W3C//DTD SVG 20010904//EN"
 "http://www.w3.org/TR/2001/REC-SVG-20010904/DTD/svg10.dtd">
<svg version="1.0" xmlns="http://www.w3.org/2000/svg"
 width="1950.000000pt" height="1950.000000pt" viewBox="0 0 1950.000000 1950.000000"
 preserveAspectRatio="xMidYMid meet">
<metadata>
Created by potrace 1.14, written by Peter Selinger 2001-2017
</metadata>
<g transform="translate(0.000000,1950.000000) scale(0.100000,-0.100000)"
fill="#000000" stroke="none">
<path d="M9447 19433 c-1 0 -117 -4 -257 -8 -333 -8 -502 -15 -735 -30 -33 -2
-103 -7 -155 -10 -52 -3 -120 -8 -150 -10 -30 -3 -84 -7 -120 -10 -73 -6 -143
-12 -340 -30 -36 -3 -83 -8 -105 -10 -22 -3 -62 -7 -90 -10 -27 -3 -72 -8
-100 -12 -27 -3 -61 -7 -75 -8 -36 -4 -123 -14 -215 -26 -44 -6 -89 -12 -100
-14 -11 -1 -45 -6 -75 -10 -30 -4 -66 -9 -80 -10 -14 -2 -38 -5 -55 -8 -16 -3
-66 -11 -110 -17 -44 -6 -91 -13 -105 -15 -14 -3 -43 -7 -65 -10 -45 -7 -147
-24 -185 -31 -25 -5 -267 -49 -325 -59 -16 -3 -52 -10 -80 -15 -27 -6 -61 -12
-75 -15 -31 -6 -166 -33 -200 -41 -30 -6 -57 -12 -90 -19 -14 -4 -36 -8 -50
-11 -77 -16 -457 -108 -590 -144 -85 -23 -173 -46 -195 -51 -22 -6 -78 -22
-125 -36 -47 -15 -90 -28 -96 -29 -6 -1 -51 -14 -100 -29 -49 -15 -89 -27 -89
-26 0 4 -484 -162 -580 -199 -60 -23 -117 -43 -125 -45 -15 -4 -267 -104 -325
-130 -16 -7 -52 -23 -80 -34 -27 -12 -59 -26 -70 -31 -11 -5 -42 -19 -70 -31
-145 -63 -414 -193 -540 -263 -222 -121 -405 -288 -548 -499 -168 -247 -264
-530 -303 -892 -6 -54 -4 -9217 2 -9226 3 -5 0 -9 -6 -9 -6 0 -8 -4 -5 -10 3
-5 8 -24 9 -42 10 -91 19 -154 31 -210 9 -45 10 -67 2 -76 -8 -10 -7 -12 4
-10 9 2 14 -6 14 -22 0 -14 3 -27 6 -30 11 -10 50 -200 43 -211 -4 -7 -3 -9 3
-6 6 4 13 -7 17 -26 10 -53 14 -68 40 -161 14 -49 23 -93 20 -98 -3 -4 0 -8 7
-8 7 0 10 -3 7 -6 -4 -3 -2 -20 4 -37 63 -205 88 -288 93 -307 2 -8 10 -34 19
-57 8 -24 12 -43 8 -43 -4 0 -2 -4 3 -8 13 -9 46 -113 39 -124 -3 -4 -1 -8 4
-8 5 0 14 -19 21 -43 7 -23 19 -58 28 -77 9 -19 17 -47 17 -61 1 -15 4 -25 7
-23 5 3 46 -96 63 -151 2 -5 8 -21 13 -35 53 -126 65 -156 67 -165 2 -5 11
-30 22 -55 10 -25 18 -48 16 -52 -1 -5 3 -8 8 -8 6 0 10 -6 10 -13 0 -7 9 -28
19 -48 11 -20 21 -45 23 -55 2 -10 6 -21 9 -24 15 -13 68 -143 62 -153 -3 -7
-3 -9 1 -5 8 6 86 -139 86 -160 0 -6 3 -12 8 -14 4 -1 33 -55 65 -118 31 -63
74 -144 94 -180 19 -36 48 -88 64 -117 44 -81 54 -98 59 -103 18 -16 60 -102
55 -110 -4 -6 -2 -9 3 -8 6 2 9 1 9 -2 -1 -3 7 -16 19 -28 11 -12 27 -35 34
-50 8 -15 20 -35 28 -44 8 -9 11 -22 6 -29 -4 -7 -3 -10 3 -6 10 6 73 -84 73
-104 0 -5 4 -9 8 -9 5 0 15 -12 23 -27 8 -16 17 -30 20 -33 4 -3 23 -30 43
-60 49 -75 65 -98 103 -149 18 -24 30 -48 26 -54 -3 -5 -1 -7 5 -3 6 3 21 -11
33 -31 13 -21 34 -49 46 -63 13 -14 21 -31 18 -38 -3 -7 -1 -10 4 -7 13 7 64
-61 56 -74 -3 -6 0 -9 7 -6 8 3 22 -8 33 -27 10 -18 24 -37 30 -43 6 -5 31
-35 56 -65 24 -30 46 -57 49 -60 3 -3 22 -25 42 -50 20 -25 49 -58 63 -75 87
-99 120 -140 117 -148 -1 -4 1 -6 6 -3 5 3 25 -14 45 -37 20 -23 84 -91 142
-151 58 -60 105 -113 105 -118 0 -5 5 -6 11 -3 6 4 13 -2 16 -14 3 -12 9 -21
14 -21 5 0 39 -30 76 -66 38 -36 87 -81 110 -101 23 -20 40 -40 37 -45 -3 -5
-2 -7 3 -6 14 5 113 -84 106 -95 -3 -6 -1 -7 4 -4 6 4 24 -5 41 -21 16 -15 46
-40 66 -56 20 -15 33 -33 29 -39 -3 -5 -1 -7 4 -4 6 4 21 -3 34 -14 13 -11 57
-46 96 -76 40 -31 73 -60 73 -64 0 -5 4 -9 10 -9 8 0 165 -114 180 -131 3 -3
28 -20 55 -39 28 -19 52 -36 55 -39 3 -3 13 -10 22 -16 44 -26 194 -130 200
-140 5 -6 8 -6 8 0 0 6 3 6 8 -1 8 -11 83 -62 124 -83 15 -8 25 -19 21 -24 -3
-6 -2 -7 4 -4 5 3 25 -4 44 -16 53 -33 91 -55 126 -73 18 -9 30 -21 26 -27 -3
-5 -2 -7 4 -4 5 3 43 -13 84 -36 41 -23 86 -48 101 -56 15 -8 25 -19 21 -24
-3 -6 -1 -7 5 -3 9 5 168 -70 197 -94 5 -4 12 -8 15 -9 19 0 39 -15 33 -24 -3
-6 -1 -7 5 -3 6 3 59 -16 119 -44 178 -84 187 -88 211 -95 20 -6 21 -9 10 -23
-11 -15 -11 -15 3 -4 13 10 29 7 90 -19 41 -17 101 -42 134 -56 70 -28 323
-123 329 -123 3 0 15 -4 28 -9 13 -5 26 -9 30 -10 7 -1 127 -43 168 -59 8 -3
17 -6 20 -7 89 -23 110 -30 110 -37 0 -5 4 -7 9 -4 5 3 33 -2 62 -11 64 -20
63 -19 114 -33 65 -18 69 -18 88 -19 10 -1 16 -4 14 -8 -3 -5 5 -8 16 -9 12 0
34 -4 50 -7 15 -4 39 -9 54 -13 15 -3 30 -7 34 -9 4 -3 24 -7 45 -10 22 -3 46
-9 54 -12 8 -3 24 -8 35 -9 11 -2 36 -7 55 -11 19 -4 40 -7 47 -8 7 0 19 -9
28 -20 14 -19 15 -19 8 -1 -5 16 -3 18 13 12 10 -4 26 -9 34 -11 8 -1 33 -6
55 -10 44 -8 63 -12 113 -19 18 -3 45 -7 60 -10 37 -8 90 -16 131 -22 19 -2
41 -10 50 -17 12 -10 13 -9 7 2 -6 10 -4 12 10 7 11 -3 42 -8 69 -11 28 -4 61
-8 75 -10 14 -2 50 -6 80 -10 30 -3 78 -8 105 -11 28 -3 91 -7 140 -10 50 -3
96 -11 104 -17 12 -10 13 -9 7 2 -7 10 -3 12 13 6 22 -7 124 -12 298 -15 74
-2 101 -5 96 -14 -5 -8 -3 -8 8 0 18 14 50 14 68 0 9 -6 12 -7 9 -1 -4 7 34
11 115 12 207 1 359 6 419 13 32 3 64 3 72 -2 8 -5 17 -4 20 0 3 5 29 10 58
11 29 1 67 4 83 6 129 14 188 19 237 20 31 0 54 3 52 6 -7 12 66 15 77 4 9 -7
10 -6 4 4 -6 11 -2 13 19 9 14 -3 26 -2 26 1 0 4 17 8 39 9 21 2 49 5 62 8 58
12 120 21 147 20 17 -1 28 2 25 7 -2 4 7 7 21 7 14 0 29 1 34 2 66 15 128 25
134 22 4 -3 8 -1 8 4 0 5 6 9 13 10 27 2 82 10 82 12 0 2 15 5 55 13 14 3 43
10 65 15 22 6 56 14 75 17 19 3 66 14 104 25 39 10 73 17 77 14 4 -2 9 0 11 6
1 5 21 12 43 16 22 3 48 10 58 16 10 5 21 7 24 4 4 -3 11 -2 17 4 7 5 32 14
56 20 56 13 58 14 93 28 16 7 36 12 46 12 10 0 21 3 25 7 6 7 24 12 56 17 9 1
21 5 28 10 11 7 196 71 215 74 4 1 23 9 43 17 20 8 40 15 44 15 5 0 38 13 74
30 36 16 66 27 66 23 0 -3 6 -1 13 4 17 14 180 78 190 75 4 -1 7 3 7 9 0 6 7
9 15 5 8 -3 15 -1 15 3 0 10 90 47 103 43 4 -1 7 2 7 7 0 15 43 21 59 9 13
-10 14 -10 3 2 -10 12 12 26 140 88 84 41 154 73 154 71 1 -2 11 4 22 14 11
10 27 15 38 11 14 -4 15 -3 6 4 -11 7 -10 10 3 16 9 3 22 3 27 -1 6 -3 8 -1 5
4 -8 13 20 26 35 16 6 -3 8 -1 5 4 -8 13 20 26 35 16 7 -3 8 -1 4 6 -4 6 0 14
11 18 10 3 30 14 44 24 14 10 28 16 31 13 3 -2 11 2 18 11 7 8 19 15 26 15 8
0 14 5 14 10 0 6 5 10 10 10 6 0 27 11 48 24 59 37 126 74 136 74 5 0 12 4 15
10 13 19 123 82 133 76 6 -4 8 -3 5 3 -7 11 117 96 140 96 7 0 10 4 7 8 -2 4
6 13 18 20 13 7 43 27 67 46 25 18 51 31 58 29 7 -3 12 -1 10 4 -2 8 63 62
133 110 13 8 61 45 109 83 47 37 93 73 102 80 27 20 100 79 148 121 25 21 57
47 71 59 14 11 42 35 63 54 21 19 43 31 49 27 7 -5 8 -3 4 5 -9 14 24 42 38
34 5 -4 6 -2 3 4 -4 6 20 34 53 62 33 29 130 122 216 207 86 85 160 151 166
148 7 -4 8 -2 4 5 -5 7 6 26 26 47 18 20 47 50 63 68 44 46 158 176 191 216
16 19 36 42 44 50 9 8 25 27 35 41 11 15 49 62 85 106 36 44 74 92 85 108 11
15 30 39 42 54 30 34 34 39 63 83 14 21 28 38 33 38 4 0 7 7 7 15 0 9 7 18 15
21 8 4 15 10 15 16 0 5 6 16 13 23 26 30 37 44 37 50 0 3 20 33 44 68 25 34
52 72 61 84 8 13 15 26 14 29 0 4 3 10 8 13 5 3 35 47 68 98 32 51 63 89 68
86 6 -3 7 -1 4 4 -8 13 20 73 34 73 5 0 9 4 9 9 0 5 20 44 45 85 25 42 45 81
45 86 0 6 4 10 9 10 5 0 14 12 20 27 23 55 68 123 76 116 4 -5 5 -2 1 5 -5 8
7 37 28 73 20 33 36 64 36 68 0 5 9 20 20 33 10 14 16 28 13 32 -3 3 -2 6 4 6
6 0 14 12 18 27 3 15 10 30 13 33 12 9 42 71 42 86 0 8 4 14 9 14 5 0 12 11
15 25 4 14 11 23 15 20 5 -3 7 4 4 15 -3 11 0 20 6 20 6 0 10 3 9 8 -1 4 10
32 24 62 84 179 169 373 182 418 4 12 11 22 15 22 4 0 8 6 8 13 0 15 83 230
92 237 3 3 7 15 8 28 2 13 12 42 22 65 11 24 23 56 27 72 4 17 14 46 23 65 8
19 15 37 16 40 1 3 5 21 9 40 5 19 11 40 15 45 4 6 12 26 18 45 27 84 84 270
83 272 -1 2 4 17 10 33 7 17 13 37 15 45 2 8 15 56 29 106 15 50 28 100 30
110 3 10 9 31 15 47 6 15 9 27 6 27 -2 0 1 15 6 33 6 17 12 39 14 47 1 8 8 33
13 55 6 22 14 52 17 68 14 71 17 82 23 87 4 3 8 19 9 35 4 49 8 69 16 83 5 6
6 12 4 12 -3 0 -1 17 4 38 5 20 12 57 15 82 4 25 10 50 15 56 10 13 7 9433 -4
9484 -3 19 -16 82 -27 140 -42 213 -139 453 -252 625 -29 44 -57 85 -63 91 -5
7 -26 31 -45 55 -86 108 -209 219 -342 308 -69 46 -403 219 -553 286 -274 123
-474 205 -680 281 -66 25 -129 49 -140 54 -53 25 -623 209 -805 260 -223 63
-614 165 -670 176 -14 3 -70 16 -125 29 -94 22 -116 27 -182 40 -16 3 -44 10
-63 15 -35 9 -48 12 -125 25 -22 4 -53 11 -70 15 -16 5 -46 11 -65 14 -78 12
-115 18 -121 21 -3 2 -32 9 -65 14 -84 14 -163 28 -204 36 -52 10 -71 13 -115
20 -22 3 -49 7 -60 9 -41 8 -91 16 -130 21 -38 5 -64 9 -130 20 -16 3 -50 7
-75 11 -25 3 -52 7 -60 9 -8 2 -42 7 -75 10 -33 4 -67 8 -75 10 -8 2 -42 7
-75 10 -33 4 -67 8 -75 10 -8 2 -46 7 -85 11 -38 3 -79 8 -90 10 -10 2 -49 6
-85 10 -36 3 -76 7 -90 9 -14 2 -56 7 -95 10 -38 3 -85 8 -104 10 -35 5 -87
10 -206 20 -38 3 -97 8 -130 11 -110 9 -169 13 -265 19 -52 4 -120 8 -150 10
-334 22 -812 37 -1288 39 -173 0 -314 0 -315 -1z"/>
</g>
</svg>
